<svg width="14" height="24" viewBox="0 0 14 24" fill="none" xmlns="http://www.w3.org/2000/svg">
<g clip-path="url(#clip0_495_8659)">
<path d="M4.06999 11.8059L13.007 2.87595C13.3231 2.55888 13.5004 2.12921 13.4997 1.68147C13.4991 1.23373 13.3206 0.804585 13.0035 0.488447C12.6864 0.172309 12.2568 -0.00492702 11.809 -0.00427064C11.3613 -0.00361427 10.9321 0.17488 10.616 0.491947L0.490994 10.6059C0.185078 10.9131 0.00928596 11.3262 0.00016023 11.7596C-0.00896551 12.193 0.149278 12.6132 0.441995 12.9329L10.609 23.1259C10.9251 23.443 11.3543 23.6215 11.802 23.6222C12.2498 23.6228 12.6794 23.4456 12.9965 23.1294C13.3136 22.8133 13.4921 22.3842 13.4927 21.9364C13.4934 21.4887 13.3161 21.059 13 20.7419L4.06999 11.8059Z" fill="black"/>
</g>
<defs>
<clipPath id="clip0_495_8659">
<rect width="13.503" height="23.619" fill="white"/>
</clipPath>
</defs>
</svg>
