<svg width="23" height="17" viewBox="0 0 23 17" fill="none" xmlns="http://www.w3.org/2000/svg">
<mask id="mask0_4419_34487" style="mask-type:luminance" maskUnits="userSpaceOnUse" x="0" y="0" width="17" height="17">
<path d="M16.808 0.334351H0.046875V16.6522H16.808V0.334351Z" fill="white"/>
</mask>
<g mask="url(#mask0_4419_34487)">
<path d="M12.0148 12.8756H6.24211C6.0406 12.8756 5.84561 12.8042 5.69167 12.6742C5.53773 12.5441 5.43477 12.3638 5.40104 12.1652C5.31005 11.6296 5.20161 10.9702 5.20161 10.867C5.20162 10.7816 5.23556 10.6997 5.29597 10.6393C5.35637 10.5789 5.43829 10.545 5.5237 10.545L9.59505 10.5476V4.13169L8.4677 4.12903V4.13169C5.00467 4.16132 4.23833 4.41498 3.52723 5.60239C3.24735 6.06981 2.58707 7.36781 2.44832 7.59467C2.31478 7.56968 2.21857 7.58028 2.21087 7.52011C2.18158 7.2864 2.4035 6.91343 1.91483 6.73467C1.42611 6.55422 0.938922 6.57139 0.511843 6.79309C0.0847642 7.01824 -0.114101 7.67484 0.20193 7.90855C0.447084 8.0873 1.14549 8.18186 1.8069 8.24197C0.968383 8.54577 0.915296 10.5227 0.852124 10.906L0.781246 11.7378C0.670712 11.8685 0.610087 12.0341 0.610142 12.2053V15.9803C0.610142 16.3532 0.881528 16.6523 1.2145 16.6523H3.05959C3.39261 16.6523 3.66241 16.3532 3.66241 15.9803V15.1071H12.0146L12.0148 12.8756ZM4.16626 11.9783C4.16754 12.013 4.1605 12.0476 4.14574 12.079C4.13098 12.1105 4.10892 12.138 4.08139 12.1593C4.05387 12.1805 4.02167 12.1949 3.98748 12.2012C3.95328 12.2075 3.91808 12.2055 3.88479 12.1955L1.98112 11.7404C1.90415 11.7191 1.83608 11.6736 1.78698 11.6106C1.73788 11.5476 1.71036 11.4705 1.70849 11.3907V11.3891C1.70721 11.3543 1.71424 11.3198 1.72899 11.2883C1.74374 11.2568 1.7658 11.2293 1.79332 11.2081C1.82084 11.1868 1.85303 11.1725 1.88723 11.1662C1.92142 11.1599 1.95662 11.1618 1.98991 11.1719L3.89357 11.627C3.97054 11.6483 4.03861 11.6937 4.08771 11.7567C4.13681 11.8197 4.16433 11.8968 4.16621 11.9766L4.16626 11.9783ZM4.41504 11.3454L1.98073 10.7332C1.78577 10.6831 1.64158 10.5459 1.73875 10.1505L1.78974 9.81539C1.86367 9.52644 2.08724 9.40287 2.38463 9.39086C2.38463 9.39086 3.62309 9.50185 3.97306 9.61352C4.41555 9.75618 4.66207 9.90745 4.74971 10.4513C4.79001 10.6732 4.81866 10.897 4.83555 11.1218C4.84495 11.3056 4.55039 11.3886 4.41504 11.3454Z" fill="black"/>
</g>
<g clip-path="url(#clip0_4419_34487)">
<path fill-rule="evenodd" clip-rule="evenodd" d="M10.2761 3.97765L16.0472 1.71436L16.272 1.71554L21.8838 3.97883L22.0523 4.04664L22.0717 4.2272C22.3726 7.00812 21.9599 9.31872 20.9468 11.2331C19.933 13.1487 18.3227 14.6586 16.2284 15.8393L16.0785 15.9237L15.9286 15.8393C11.3736 13.2721 9.52786 9.37116 10.0846 4.2272L10.1044 4.04506L10.2761 3.97765ZM14.6812 10.4052L12.8787 8.61305L12.1789 9.30887L14.3311 11.4488L14.6808 11.7965L20.9084 5.60465L20.2085 4.90883L14.6812 10.4052Z" fill="black"/>
</g>
<defs>
<clipPath id="clip0_4419_34487">
<rect width="12.1794" height="14.2094" fill="white" transform="translate(9.98828 1.71436)"/>
</clipPath>
</defs>
</svg>
