<svg width="22" height="17" viewBox="0 0 22 17" fill="none" xmlns="http://www.w3.org/2000/svg">
<g clip-path="url(#clip0_1743_19240)">
<path d="M20.1667 0H1.83333C1.34755 0.0014948 0.882076 0.200982 0.538574 0.554894C0.195071 0.908806 0.00145083 1.38838 0 1.88889L0 15.1111C0.00145083 15.6116 0.195071 16.0912 0.538574 16.4451C0.882076 16.799 1.34755 16.9985 1.83333 17H20.1667C20.6513 16.9975 21.1153 16.7974 21.4571 16.4434C21.7989 16.0895 21.9908 15.6104 21.9908 15.1111L22 1.88889C21.9985 1.38838 21.8049 0.908806 21.4614 0.554894C21.1179 0.200982 20.6525 0.0014948 20.1667 0ZM7.33333 2.83333C7.87723 2.83333 8.40892 2.99951 8.86115 3.31084C9.31339 3.62217 9.66586 4.06467 9.874 4.5824C10.0821 5.10012 10.1366 5.66981 10.0305 6.21942C9.92438 6.76904 9.66247 7.27389 9.27788 7.67014C8.89328 8.06638 8.40328 8.33623 7.86983 8.44556C7.33638 8.55488 6.78345 8.49877 6.28095 8.28432C5.77846 8.06988 5.34897 7.70672 5.04679 7.24078C4.74462 6.77484 4.58333 6.22705 4.58333 5.66667C4.58285 5.29445 4.65365 4.92579 4.79168 4.58181C4.92971 4.23783 5.13226 3.92529 5.38771 3.66209C5.64317 3.39889 5.94652 3.19021 6.28038 3.048C6.61425 2.90578 6.97206 2.83284 7.33333 2.83333ZM12.8333 14.1667H1.83333V13.2222C1.83333 11.3333 5.5 10.2944 7.33333 10.2944C9.16667 10.2944 12.8333 11.3333 12.8333 13.2222V14.1667ZM16.3625 10.3889H17.8658L19.25 12.2778L17.4258 14.1572C16.2114 13.2196 15.3316 11.8948 14.9233 10.3889C14.5811 9.15431 14.5811 7.84569 14.9233 6.61111C15.3293 5.10405 16.2095 3.77856 17.4258 2.84278L19.25 4.72222L17.8658 6.61111H16.3625C15.9347 7.83181 15.9347 9.16819 16.3625 10.3889Z" fill="#9A9EA7"/>
</g>
<defs>
<clipPath id="clip0_1743_19240">
<rect width="22" height="17" fill="white"/>
</clipPath>
</defs>
</svg>
