<svg width="25" height="22" viewBox="0 0 25 22" fill="none" xmlns="http://www.w3.org/2000/svg">
<path d="M22.2278 2.78295C21.6662 2.22285 20.9994 1.77854 20.2656 1.4754C19.5317 1.17226 18.7451 1.01624 17.9507 1.01624C17.1563 1.01624 16.3697 1.17226 15.6359 1.4754C14.902 1.77854 14.2352 2.22285 13.6736 2.78295L12.5081 3.9448L11.3427 2.78295C10.7818 2.21939 10.1148 1.7718 9.37999 1.46584C8.64518 1.15988 7.85699 1.00157 7.06065 1.00001C6.26432 0.99845 5.47551 1.15366 4.73949 1.45674C4.00348 1.75981 3.33473 2.20479 2.77164 2.76614C2.20854 3.32748 1.76218 3.99415 1.45816 4.72788C1.15414 5.46161 0.998445 6.24797 1.00001 7.04183C1.00158 7.83569 1.16037 8.62143 1.46729 9.35397C1.7742 10.0865 2.22319 10.7514 2.7885 11.3105L3.95398 12.4724L12.5081 21L21.0623 12.4724L22.2278 11.3105C22.7896 10.7507 23.2353 10.086 23.5394 9.35441C23.8435 8.62281 24 7.83866 24 7.04674C24 6.25483 23.8435 5.47068 23.5394 4.73908C23.2353 4.00748 22.7896 3.34278 22.2278 2.78295Z" fill="#FFC700" stroke="#FFC700" stroke-width="1.5" stroke-linecap="round" stroke-linejoin="round"/>
</svg>
