<svg width="14" height="8" viewBox="0 0 14 8" fill="none" xmlns="http://www.w3.org/2000/svg">
<g clip-path="url(#clip0_1743_19793)">
<path d="M6.99214 0C4.47986 0 2.49865 1.40563 0.129911 3.70291C0.0462895 3.78352 -0.000395539 3.88902 -0.000971175 3.99867C-0.00154681 4.10833 0.0440286 4.2142 0.1268 4.29551C2.15467 6.28701 3.94211 8.00119 6.99214 8.00119C10.0044 8.00119 12.2638 5.84296 13.8699 4.27891C13.9508 4.20123 13.9971 4.09996 13.9999 3.99412C14.0028 3.88828 13.9621 3.78515 13.8855 3.7041C12.2483 1.93896 9.98262 0 6.99214 0ZM7.13169 6.49718C6.56475 6.5211 6.00294 6.39195 5.52011 6.12674C5.03728 5.86152 4.65602 5.47264 4.42646 5.01121C4.19689 4.54978 4.12975 4.0374 4.23387 3.54142C4.338 3.04544 4.60851 2.58908 5.00984 2.23231C5.41118 1.87555 5.92455 1.63508 6.4825 1.54252C7.04044 1.44996 7.61683 1.50964 8.1359 1.71371C8.65497 1.91779 9.09244 2.25671 9.39079 2.68592C9.68914 3.11513 9.83442 3.61454 9.80752 4.11852C9.77406 4.73978 9.4814 5.32768 8.98665 5.76748C8.49191 6.20728 7.83057 6.46744 7.13169 6.49718Z" fill="black"/>
<path d="M6.99865 2.69671C6.99819 2.5363 7.03103 2.37719 7.09553 2.22737C7.06443 2.22737 7.03287 2.22461 6.99865 2.22461C6.60302 2.22461 6.21628 2.32892 5.88735 2.52436C5.55843 2.71979 5.3021 2.99756 5.1508 3.32252C4.9995 3.64748 4.96002 4.00503 5.03737 4.34994C5.11472 4.69485 5.30541 5.01162 5.58532 5.26016C5.86523 5.50871 6.22178 5.67787 6.60986 5.74625C6.99794 5.81462 7.40012 5.77913 7.76551 5.64427C8.1309 5.50941 8.44308 5.28124 8.66257 4.98863C8.88205 4.69602 8.99896 4.35211 8.99852 4.00041C8.99852 3.96446 8.99541 3.92812 8.99541 3.89216C8.81655 3.96362 8.62266 4.00052 8.42656 4.00041C8.043 3.9951 7.67742 3.85495 7.40982 3.61063C7.14221 3.3663 6.99437 3.03769 6.99865 2.69671Z" fill="black"/>
</g>
<defs>
<clipPath id="clip0_1743_19793">
<rect width="14" height="8" fill="white"/>
</clipPath>
</defs>
</svg>
