<svg width="14" height="12" viewBox="0 0 14 12" fill="none" xmlns="http://www.w3.org/2000/svg">
<g clip-path="url(#clip0_1743_19805)">
<path d="M1.75894 0.129414C1.6739 0.056056 1.56423 0.0176058 1.45199 0.0217938C1.33974 0.0259818 1.23325 0.0724973 1.15391 0.151989C1.07457 0.23148 1.02827 0.338054 1.02432 0.450283C1.02037 0.562512 1.05906 0.672076 1.13262 0.756946L12.2455 11.8721C12.3006 11.9269 12.3692 11.9662 12.4444 11.986C12.5196 12.0057 12.5986 12.0052 12.6736 11.9845C12.7495 11.9648 12.8186 11.9249 12.8736 11.869C12.9558 11.7858 13.002 11.6735 13.002 11.5565C13.002 11.4396 12.9558 11.3273 12.8736 11.2441L1.75894 0.129414Z" fill="#858585"/>
<path d="M7.13352 8.81119C6.64846 8.83437 6.16567 8.73148 5.73223 8.51256C5.29878 8.29364 4.92947 7.96616 4.66031 7.56205C4.39115 7.15794 4.23132 6.69098 4.1964 6.20672C4.16149 5.72246 4.25268 5.23742 4.46109 4.79889L2.79016 3.12695C1.83389 3.89774 0.944099 4.74751 0.130184 5.6673C0.0465442 5.75799 -0.00015127 5.87667 -0.000727034 6.00002C-0.0013028 6.12337 0.0442828 6.24248 0.127072 6.33395C2.15539 8.57431 3.94323 10.5027 6.99394 10.5027C7.88527 10.4956 8.7639 10.2907 9.56635 9.9027L8.20658 8.5432C7.86991 8.70197 7.50531 8.79303 7.13352 8.81119Z" fill="#858585"/>
<path d="M13.8702 6.31227C13.9511 6.22487 13.9974 6.11095 14.0002 5.99189C14.0031 5.87282 13.9624 5.75681 13.8857 5.66562C12.2513 3.68125 9.98512 1.5 6.99576 1.5C6.10669 1.50095 5.22953 1.70446 4.43091 2.09509L5.7969 3.46082C6.13263 3.30049 6.49734 3.20978 6.86907 3.19416C7.35413 3.17098 7.83692 3.27387 8.27036 3.49279C8.70381 3.71171 9.07312 4.03919 9.34228 4.4433C9.61144 4.84741 9.77127 5.31436 9.80619 5.79862C9.8411 6.28288 9.74991 6.76792 9.5415 7.20646L11.2138 8.87839C12.174 8.10398 13.0631 7.24517 13.8702 6.31227Z" fill="#858585"/>
<path d="M5.00609 6.15456C5.04435 6.6299 5.25057 7.0761 5.58784 7.4133C5.9251 7.7505 6.3714 7.95668 6.84682 7.99494C7.0936 8.01389 7.34173 7.98584 7.57805 7.91227L5.08432 5.41992C5.01384 5.65802 4.98733 5.90696 5.00609 6.15456Z" fill="#858585"/>
<path d="M9.00054 6.00068C9.00054 5.96024 8.99743 5.91935 8.99743 5.87891C8.81852 5.95929 8.62459 6.0008 8.42845 6.00068C8.39422 6.00068 8.36266 6.00068 8.33154 5.99757L8.91163 6.58199C8.96976 6.39366 8.99972 6.19777 9.00054 6.00068Z" fill="#858585"/>
<path d="M7.00011 4.535C6.99965 4.35454 7.0325 4.17555 7.09701 4.00702C7.0659 4.00702 7.03434 4.00391 7.00011 4.00391C6.80415 4.00474 6.60939 4.0347 6.42224 4.09279L7.00678 4.67721C7.00322 4.62655 7.00011 4.57944 7.00011 4.535Z" fill="#858585"/>
</g>
<defs>
<clipPath id="clip0_1743_19805">
<rect width="14" height="12" fill="white"/>
</clipPath>
</defs>
</svg>
