<svg width="20" height="19" viewBox="0 0 20 19" fill="none" xmlns="http://www.w3.org/2000/svg">
<path fill-rule="evenodd" clip-rule="evenodd" d="M8.25904 0.206177H11.6027C12.7056 0.206167 13.5952 0.206159 14.3155 0.264786C15.0572 0.32515 15.7087 0.452683 16.3115 0.758598C17.2689 1.24452 18.0473 2.01989 18.5351 2.97356C18.8423 3.57396 18.9703 4.2229 19.0309 4.96172C19.0897 5.67927 19.0897 6.56537 19.0897 7.66397V10.9946C19.0897 12.0932 19.0897 12.9793 19.0309 13.6968C18.9703 14.4356 18.8423 15.0846 18.5351 15.685C18.0473 16.6387 17.2689 17.414 16.3115 17.8999C15.7087 18.2059 15.0572 18.3334 14.3155 18.3938C13.5952 18.4524 12.7056 18.4524 11.6027 18.4524H8.25902C7.15611 18.4524 6.26653 18.4524 5.54617 18.3938C4.80445 18.3334 4.15296 18.2059 3.55021 17.8999C2.5928 17.414 1.81439 16.6387 1.32656 15.685C1.01945 15.0846 0.891412 14.4356 0.830812 13.6968C0.771955 12.9793 0.771963 12.0932 0.771973 10.9945V7.66399C0.771963 6.56539 0.771955 5.67928 0.830812 4.96172C0.891412 4.2229 1.01945 3.57396 1.32656 2.97356C1.81439 2.01989 2.5928 1.24452 3.55021 0.758598C4.15296 0.452683 4.80445 0.32515 5.54617 0.264786C6.26654 0.206159 7.15612 0.206167 8.25904 0.206177ZM5.7119 2.28541C5.09605 2.33553 4.74223 2.42896 4.47422 2.56498C3.89977 2.85654 3.43273 3.32176 3.14003 3.89396C3.00348 4.16092 2.90967 4.51336 2.85936 5.12681C2.80807 5.75209 2.80728 6.55523 2.80728 7.70739V10.9512C2.80728 12.1033 2.80807 12.9065 2.85936 13.5317C2.90967 14.1452 3.00348 14.4976 3.14003 14.7646C3.43273 15.3368 3.89977 15.802 4.47422 16.0936C4.74223 16.2296 5.09605 16.323 5.7119 16.3731C6.33963 16.4242 7.14593 16.425 8.3026 16.425H11.5591C12.7158 16.425 13.5221 16.4242 14.1498 16.3731C14.7656 16.323 15.1195 16.2296 15.3875 16.0936C15.9619 15.802 16.429 15.3368 16.7217 14.7646C16.8582 14.4976 16.952 14.1452 17.0023 13.5317C17.0536 12.9065 17.0544 12.1033 17.0544 10.9512V7.70739C17.0544 6.55524 17.0536 5.75209 17.0023 5.12681C16.952 4.51336 16.8582 4.16092 16.7217 3.89396C16.429 3.32176 15.9619 2.85654 15.3875 2.56498C15.1195 2.42896 14.7656 2.33553 14.1498 2.28541C13.5221 2.23432 12.7158 2.23353 11.5591 2.23353H8.3026C7.14593 2.23353 6.33963 2.23432 5.7119 2.28541Z" fill="#1D1D1D"/>
<path fill-rule="evenodd" clip-rule="evenodd" d="M11.522 6.57925L8.95558 9.65734L8.05718 8.57984C7.82853 8.30561 7.47094 8.17419 7.11912 8.23508C6.7673 8.29598 6.47469 8.53995 6.35152 8.87508C6.22835 9.21022 6.29333 9.58561 6.52198 9.85985L8.18798 11.8598C8.37754 12.088 8.65872 12.2201 8.95535 12.2203C9.25197 12.2205 9.53333 12.0888 9.72318 11.8608L13.0572 7.86085C13.2916 7.58723 13.3608 7.20863 13.2381 6.86981C13.1155 6.53099 12.82 6.28435 12.4648 6.2242C12.1095 6.16405 11.7493 6.29968 11.522 6.57925Z" fill="#179942"/>
</svg>
