<svg xmlns="http://www.w3.org/2000/svg" width="153" height="80" viewBox="0 0 153 80">
  <g id="Group_86" data-name="Group 86" transform="translate(17245 11749)">
    <rect id="Rectangle_12" data-name="Rectangle 12" width="153" height="80" transform="translate(-17245 -11749)" fill="#d9d9d9"/>
    <path id="Icon_awesome-car" data-name="Icon awesome-car" d="M42.968,14.125H37.823l-1.43-3.575A9.576,9.576,0,0,0,27.457,4.5H16.543a9.579,9.579,0,0,0-8.937,6.05l-1.43,3.575H1.032a1.031,1.031,0,0,0-1,1.281l.516,2.062a1.031,1.031,0,0,0,1,.781H3.272a5.462,5.462,0,0,0-1.9,4.125V26.5A5.455,5.455,0,0,0,2.75,30.1V34.75A2.75,2.75,0,0,0,5.5,37.5H8.25A2.75,2.75,0,0,0,11,34.75V32H33v2.75a2.75,2.75,0,0,0,2.75,2.75H38.5a2.75,2.75,0,0,0,2.75-2.75V30.1a5.452,5.452,0,0,0,1.375-3.6V22.375a5.464,5.464,0,0,0-1.9-4.125h1.725a1.031,1.031,0,0,0,1-.781l.516-2.062a1.032,1.032,0,0,0-1-1.281ZM12.713,12.593A4.125,4.125,0,0,1,16.543,10H27.457a4.125,4.125,0,0,1,3.83,2.593L33,16.875H11l1.713-4.282ZM8.25,26.483A2.594,2.594,0,0,1,5.5,23.741,2.594,2.594,0,0,1,8.25,21c1.65,0,4.125,2.467,4.125,4.112S9.9,26.483,8.25,26.483Zm27.5,0c-1.65,0-4.125.274-4.125-1.371S34.1,21,35.75,21a2.594,2.594,0,0,1,2.75,2.741,2.594,2.594,0,0,1-2.75,2.741Z" transform="translate(-17190 -11729.5)" fill="#a0a0a0"/>
  </g>
</svg>
