<svg width="17" height="17" viewBox="0 0 17 17" fill="none" xmlns="http://www.w3.org/2000/svg">
<mask id="mask0_3901_1674" style="mask-type:luminance" maskUnits="userSpaceOnUse" x="0" y="0" width="17" height="17">
<path d="M16.6683 0.404297H0.154175V16.4818H16.6683V0.404297Z" fill="white"/>
</mask>
<g mask="url(#mask0_3901_1674)">
<path d="M9.00829 12.7607H6.25789C6.05935 12.7607 5.86723 12.6904 5.71555 12.5622C5.56388 12.4341 5.46244 12.2565 5.42921 12.0607C5.33956 11.5331 5.23272 10.8834 5.23272 10.7817C5.23273 10.6975 5.26617 10.6168 5.32568 10.5573C5.3852 10.4978 5.46591 10.4644 5.55006 10.4644H9.0084V4.143H8.45069V4.14563C5.03868 4.17482 4.28363 4.42474 3.58301 5.59465C3.30725 6.05519 2.6567 7.33407 2.51999 7.55758C2.38842 7.53296 2.29363 7.5434 2.28604 7.48412C2.25718 7.25385 2.47583 6.88638 1.99437 6.71026C1.51285 6.53246 1.03283 6.54938 0.612048 6.76781C0.191262 6.98965 -0.00467369 7.63657 0.306701 7.86683C0.548243 8.04295 1.23636 8.13612 1.88803 8.19535C1.06186 8.49466 1.00956 10.4425 0.947315 10.8201L0.877482 11.6397C0.768576 11.7684 0.708844 11.9316 0.708899 12.1003V15.8196C0.708899 16.1871 0.976287 16.4817 1.30435 16.4817H3.12225C3.45037 16.4817 3.7162 16.1871 3.7162 15.8196V14.9594H9.00813L9.00829 12.7607ZM4.21262 11.8766C4.21388 11.9108 4.20695 11.9449 4.1924 11.9759C4.17786 12.0069 4.15613 12.034 4.129 12.0549C4.10189 12.0758 4.07016 12.09 4.03647 12.0962C4.00278 12.1024 3.9681 12.1005 3.9353 12.0906L2.05968 11.6422C1.98385 11.6212 1.91678 11.5764 1.8684 11.5143C1.82002 11.4523 1.79291 11.3763 1.79106 11.2977V11.2961C1.7898 11.2619 1.79672 11.2278 1.81126 11.1968C1.8258 11.1658 1.84753 11.1387 1.87464 11.1178C1.90176 11.0968 1.93348 11.0827 1.96717 11.0765C2.00085 11.0703 2.03554 11.0722 2.06833 11.0821L3.94395 11.5305C4.01978 11.5514 4.08685 11.5963 4.13523 11.6583C4.18361 11.7203 4.21072 11.7963 4.21257 11.875L4.21262 11.8766ZM4.45774 11.2531L2.05929 10.6498C1.86721 10.6005 1.72514 10.4653 1.82087 10.0758L1.87111 9.74558C1.94396 9.46089 2.16423 9.33914 2.45724 9.3273C2.45724 9.3273 3.67746 9.43666 4.02227 9.54668C4.45824 9.68724 4.70112 9.83629 4.78748 10.3721C4.82718 10.5907 4.85541 10.8112 4.87205 11.0328C4.88132 11.2139 4.5911 11.2958 4.45774 11.2533M13.3287 2.22557C13.28 2.30017 13.2036 2.35241 13.1164 2.37086C13.0292 2.3893 12.9382 2.37245 12.8634 2.32399C12.827 2.3011 9.30543 0.0446625 7.6924 1.66177C7.00579 2.34966 6.96269 3.23037 7.11107 3.97353C6.86288 3.98296 6.63496 3.99507 6.42183 4.01126C6.26135 3.12112 6.34497 2.05693 7.21624 1.18432C9.21506 -0.817174 13.0671 1.65234 13.2303 1.7589C13.2675 1.78297 13.2996 1.81416 13.3247 1.85069C13.3499 1.88722 13.3675 1.92836 13.3767 1.97174C13.3858 2.01512 13.3863 2.05988 13.3781 2.10344C13.3698 2.14701 13.3531 2.18851 13.3287 2.22557ZM16.3337 3.4718L13.759 1.07776C13.571 0.902881 13.3252 0.803336 13.0685 0.798117C12.8117 0.792897 12.5621 0.882366 12.3671 1.04946C12.5653 1.14519 12.7407 1.2383 12.8862 1.31919C12.9389 1.30716 12.9927 1.30128 13.0467 1.30166C13.1875 1.30156 13.3256 1.34096 13.4451 1.41539C13.5646 1.48983 13.6609 1.5963 13.7229 1.72271C13.7849 1.84912 13.8103 1.9904 13.796 2.13049C13.7817 2.27057 13.7285 2.40385 13.6422 2.51517C13.556 2.62648 13.4403 2.71137 13.3082 2.76018C13.1761 2.80899 13.033 2.81977 12.8951 2.79129C12.7572 2.76281 12.63 2.69621 12.5281 2.59907C12.4261 2.50193 12.3535 2.37813 12.3184 2.24176C12.1067 2.12576 11.8288 1.9828 11.5105 1.84386L9.7586 3.4718C9.65331 3.56995 9.56938 3.68876 9.51207 3.82081C9.45476 3.95285 9.42529 4.09529 9.42551 4.23924V15.3838C9.42537 15.5214 9.45234 15.6576 9.50488 15.7847C9.55741 15.9118 9.63448 16.0274 9.73167 16.1247C9.82887 16.222 9.94428 16.2992 10.0713 16.3519C10.1984 16.4046 10.3346 16.4318 10.4721 16.4318H15.6202C15.8982 16.4318 16.1647 16.3213 16.3612 16.1248C16.5577 15.9283 16.6681 15.6617 16.6682 15.3838V4.23924C16.6682 4.0952 16.6384 3.95272 16.5809 3.82068C16.5233 3.68863 16.4392 3.56987 16.3337 3.4718ZM15.3488 8.49846H13.8726C13.8726 8.20188 13.8067 7.9811 13.6781 7.83613C13.5497 7.6944 13.3651 7.62194 13.1311 7.62194C12.884 7.62194 12.7124 7.68457 12.6104 7.81308C12.5083 7.93829 12.4589 8.1096 12.4589 8.3205C12.4589 8.52146 12.5116 8.67971 12.6203 8.79833C12.7291 8.91696 12.9497 9.0521 13.2826 9.21025C13.9714 9.43104 14.4876 9.70345 14.8314 10.0275C15.1775 10.3471 15.3488 10.7922 15.3488 11.3554C15.3488 11.8794 15.184 12.2979 14.8545 12.6142C14.5217 12.9306 14.0669 13.1151 13.4935 13.1678V14.0674H12.7818V13.1679C12.1789 13.1185 11.6812 12.9273 11.2957 12.5945C10.9069 12.2617 10.7201 11.7696 10.7355 11.1182L10.7421 11.0918H12.215C12.215 11.4346 12.3007 11.6784 12.4655 11.8267C12.6303 11.9719 12.8543 12.0444 13.1344 12.0444C13.3816 12.0444 13.5629 11.9851 13.6748 11.8599C13.7913 11.7223 13.8513 11.5457 13.8429 11.3656C13.8429 11.1251 13.7836 10.9438 13.6683 10.8219C13.5529 10.6967 13.3354 10.5682 13.0125 10.433C12.3007 10.1826 11.7779 9.90802 11.4439 9.60926C11.111 9.31268 10.9463 8.87771 10.9463 8.31095C10.9463 7.80348 11.1176 7.38498 11.4636 7.0554C11.8097 6.72918 12.2776 6.54134 12.8707 6.49523V5.54927H13.5758V6.50818C14.1361 6.58399 14.5743 6.79159 14.8939 7.14087C15.2136 7.48696 15.3684 7.93175 15.3586 8.47875L15.3488 8.49846Z" fill="black"/>
</g>
</svg>
