<svg width="17" height="18" viewBox="0 0 17 18" fill="none" xmlns="http://www.w3.org/2000/svg">
<path d="M3.76099 13.7266C5.08912 15.0286 6.66464 15.6797 8.48756 15.6797C10.3105 15.6797 11.873 15.0286 13.1751 13.7266C14.5032 12.3984 15.1672 10.8229 15.1672 9C15.1672 7.17708 14.5032 5.61458 13.1751 4.3125C11.873 2.98438 10.3105 2.32031 8.48756 2.32031C6.66464 2.32031 5.08912 2.98438 3.76099 4.3125C2.45891 5.61458 1.80787 7.17708 1.80787 9C1.80787 10.8229 2.45891 12.3984 3.76099 13.7266ZM2.58912 3.14062C4.22974 1.5 6.19589 0.679688 8.48756 0.679688C10.7792 0.679688 12.7323 1.5 14.3469 3.14062C15.9876 4.75521 16.8079 6.70833 16.8079 9C16.8079 11.2917 15.9876 13.2578 14.3469 14.8984C12.7323 16.513 10.7792 17.3203 8.48756 17.3203C6.19589 17.3203 4.22974 16.513 2.58912 14.8984C0.974536 13.2578 0.167244 11.2917 0.167244 9C0.167244 6.70833 0.974536 4.75521 2.58912 3.14062ZM4.30787 8.17969H12.6672V9.82031H4.30787V8.17969Z" fill="black"/>
</svg>
