<svg width="12" height="12" viewBox="0 0 12 12" fill="none" xmlns="http://www.w3.org/2000/svg">
<g clip-path="url(#clip0_1743_19725)">
<path d="M11.9999 5.99983C11.9999 7.18656 11.6481 8.34667 10.9888 9.33344C10.3295 10.3202 9.39247 11.0893 8.29609 11.5435C7.19971 11.9977 5.99326 12.1166 4.82932 11.8851C3.66538 11.6536 2.59622 11.0822 1.75705 10.2431C0.917872 9.40393 0.346377 8.3348 0.114831 7.17087C-0.116715 6.00695 0.00208869 4.80049 0.456217 3.70409C0.910346 2.60768 1.6794 1.67056 2.66613 1.01124C3.65286 0.351913 4.81295 1.18188e-08 5.99969 9.86746e-09C6.78762 -4.51778e-05 7.56786 0.155112 8.29583 0.456611C9.0238 0.75811 9.68526 1.20005 10.2424 1.75719C10.7996 2.31433 11.2416 2.97576 11.5431 3.70371C11.8447 4.43167 11.9999 5.21189 11.9999 5.99983ZM5.30567 9.17677L9.75745 4.72671C9.7934 4.69076 9.82191 4.64809 9.84136 4.60113C9.86082 4.55416 9.87083 4.50382 9.87083 4.45299C9.87083 4.40215 9.86082 4.35182 9.84136 4.30485C9.82191 4.25789 9.7934 4.21521 9.75745 4.17927L9.21001 3.63045C9.17406 3.59451 9.13139 3.56599 9.08443 3.54654C9.03746 3.52708 8.98712 3.51707 8.93629 3.51707C8.88545 3.51707 8.83512 3.52708 8.78815 3.54654C8.74119 3.56599 8.69851 3.59451 8.66257 3.63045L5.03212 7.2609L3.33715 5.56594C3.3012 5.52999 3.25853 5.50148 3.21157 5.48202C3.1646 5.46257 3.11426 5.45256 3.06343 5.45256C3.01259 5.45256 2.96226 5.46257 2.91529 5.48202C2.86833 5.50148 2.82565 5.52999 2.78971 5.56594L2.24192 6.11303C2.20598 6.14898 2.17746 6.19165 2.15801 6.23862C2.13856 6.28558 2.12854 6.33592 2.12854 6.38675C2.12854 6.43759 2.13856 6.48792 2.15801 6.53489C2.17746 6.58185 2.20598 6.62453 2.24192 6.66047L4.75822 9.17677C4.79417 9.21272 4.83684 9.24123 4.88381 9.26069C4.93077 9.28014 4.98111 9.29015 5.03194 9.29015C5.08278 9.29015 5.13312 9.28014 5.18008 9.26069C5.22705 9.24123 5.26972 9.21272 5.30567 9.17677Z" fill="#5D19EE"/>
</g>
<defs>
<clipPath id="clip0_1743_19725">
<rect width="12" height="12" fill="white"/>
</clipPath>
</defs>
</svg>
