<svg width="15" height="15" viewBox="0 0 15 15" fill="none" xmlns="http://www.w3.org/2000/svg">
<g clip-path="url(#clip0_2340_20114)">
<path d="M7.49995 8.65431C6.73056 8.65215 5.97625 8.8677 5.32416 9.27605C4.67208 9.68439 4.14881 10.2689 3.81482 10.962H11.1851C10.8511 10.2689 10.3278 9.68439 9.67573 9.27605C9.02364 8.8677 8.26934 8.65215 7.49995 8.65431Z" fill="#5D19EE"/>
<path d="M7.5 2.80696e-07C6.01664 2.80696e-07 4.5666 0.439868 3.33323 1.26398C2.09986 2.08809 1.13856 3.25943 0.570907 4.62987C0.00324958 6.00032 -0.145275 7.50832 0.144114 8.96318C0.433503 10.418 1.14781 11.7544 2.1967 12.8033C3.2456 13.8522 4.58197 14.5665 6.03683 14.8559C7.49168 15.1453 8.99968 14.9968 10.3701 14.4291C11.7406 13.8614 12.9119 12.9001 13.736 11.6668C14.5601 10.4334 15 8.98336 15 7.5C15.0003 6.51501 14.8065 5.53962 14.4296 4.62956C14.0528 3.71949 13.5004 2.89259 12.8039 2.1961C12.1074 1.49961 11.2805 0.94717 10.3704 0.570355C9.46038 0.19354 8.48499 -0.000269229 7.5 2.80696e-07ZM7.5 13.5C6.31332 13.5 5.15328 13.1481 4.16658 12.4888C3.17989 11.8295 2.41085 10.8925 1.95673 9.7961C1.5026 8.69974 1.38378 7.49334 1.61529 6.32946C1.8468 5.16557 2.41825 4.09647 3.25736 3.25736C4.09648 2.41824 5.16558 1.8468 6.32946 1.61529C7.49335 1.38378 8.69975 1.5026 9.7961 1.95672C10.8925 2.41085 11.8295 3.17988 12.4888 4.16658C13.1481 5.15327 13.5 6.31331 13.5 7.5C13.4953 9.08984 12.8616 10.6132 11.7374 11.7374C10.6132 12.8616 9.08985 13.4953 7.5 13.5Z" fill="#5D19EE"/>
<path d="M10.1251 6.75026C10.3476 6.75026 10.5651 6.68427 10.7502 6.56064C10.9352 6.43701 11.0794 6.26129 11.1646 6.0557C11.2497 5.85011 11.272 5.62388 11.2286 5.40563C11.1852 5.18737 11.078 4.98689 10.9207 4.82954C10.7633 4.67219 10.5628 4.56503 10.3446 4.52162C10.1263 4.47821 9.9001 4.50049 9.69451 4.58565C9.48892 4.6708 9.3132 4.81501 9.18957 5.00004C9.06594 5.18507 8.99995 5.4026 8.99995 5.62513C8.99717 5.77365 9.02437 5.9212 9.07992 6.05897C9.13548 6.19673 9.21825 6.32188 9.32329 6.42692C9.42833 6.53196 9.55347 6.61473 9.69124 6.67028C9.829 6.72584 9.97656 6.75304 10.1251 6.75026Z" fill="#5D19EE"/>
<path d="M4.87483 6.75026C5.09736 6.75026 5.3149 6.68427 5.49992 6.56064C5.68495 6.43701 5.82916 6.26129 5.91432 6.0557C5.99948 5.85011 6.02176 5.62388 5.97834 5.40563C5.93493 5.18737 5.82777 4.98689 5.67042 4.82954C5.51307 4.67219 5.31259 4.56503 5.09434 4.52162C4.87608 4.47821 4.64986 4.50049 4.44427 4.58565C4.23868 4.6708 4.06295 4.81501 3.93932 5.00004C3.81569 5.18507 3.74971 5.4026 3.74971 5.62513C3.74692 5.77365 3.77412 5.9212 3.82968 6.05897C3.88524 6.19673 3.96801 6.32188 4.07305 6.42692C4.17808 6.53196 4.30323 6.61473 4.44099 6.67028C4.57876 6.72584 4.72631 6.75304 4.87483 6.75026Z" fill="#5D19EE"/>
</g>
<defs>
<clipPath id="clip0_2340_20114">
<rect width="15" height="15" fill="white"/>
</clipPath>
</defs>
</svg>
