<svg width="17" height="17" viewBox="0 0 17 17" fill="none" xmlns="http://www.w3.org/2000/svg">
<path d="M16.513 12.0125L12.7946 10.4187C12.6358 10.351 12.4594 10.3368 12.2918 10.378C12.1243 10.4193 11.9746 10.5138 11.8654 10.6475L10.2187 12.6599C7.63441 11.4414 5.55458 9.36153 4.33593 6.77703L6.34738 5.1301C6.48156 5.02113 6.57656 4.87137 6.61797 4.70353C6.65938 4.5357 6.64494 4.35893 6.57685 4.20003L4.98328 0.481175C4.90861 0.310016 4.77654 0.170291 4.60988 0.0861049C4.44321 0.001919 4.25239 -0.0214475 4.07034 0.0200365L0.617598 0.816935C0.442061 0.857455 0.285434 0.956274 0.173271 1.09727C0.061108 1.23826 2.93664e-05 1.41311 1.46589e-07 1.59329C-0.00027895 3.61661 0.397981 5.62016 1.17203 7.48951C1.94608 9.35886 3.08076 11.0574 4.51126 12.4881C5.94176 13.9188 7.64005 15.0536 9.50914 15.8278C11.3782 16.602 13.3815 17.0003 15.4045 17C15.5852 17.0006 15.7607 16.9398 15.9022 16.8276C16.0438 16.7154 16.143 16.5583 16.1836 16.3823L16.9804 12.9291C17.0215 12.746 16.9975 12.5544 16.9126 12.3871C16.8277 12.2198 16.6871 12.0873 16.5151 12.0125H16.513Z" fill="#5D19EE"/>
</svg>
