<svg width="16" height="16" viewBox="0 0 16 16" fill="none" xmlns="http://www.w3.org/2000/svg">
<path d="M15.8081 7.1659L8.51283 0.199053C8.37653 0.0715356 8.19317 0 8.00216 0C7.81131 0 7.62795 0.0715356 7.49149 0.199053L0.196222 7.1659C0.070185 7.29482 2.84152e-07 7.46449 2.84152e-07 7.64085C-0.000162588 7.81719 0.0696972 7.98701 0.195409 8.1161C0.321284 8.24518 0.493569 8.32387 0.677731 8.33646H1.56784V15.3033C1.56784 15.4881 1.6447 15.6652 1.78148 15.796C1.91827 15.9266 2.10375 16 2.29736 16H6.38272V11.325C6.38272 11.1403 6.45958 10.963 6.59636 10.8324C6.73315 10.7018 6.91863 10.6284 7.11224 10.6284H8.87778H8.87762C9.07107 10.6284 9.25671 10.7018 9.3935 10.8324C9.53028 10.963 9.60714 11.1403 9.60714 11.325V15.9928H13.6925C13.886 15.9928 14.0716 15.9194 14.2084 15.7888C14.3452 15.6582 14.422 15.4809 14.422 15.2961V8.3293H15.3486C15.5284 8.31079 15.6945 8.22915 15.8148 8.10039C15.9352 7.97147 16.0011 7.80445 16 7.63182C15.9987 7.4592 15.9305 7.29312 15.8082 7.16575L15.8081 7.1659Z" fill="black"/>
</svg>
