<svg width="8" height="6" viewBox="0 0 8 6" fill="none" xmlns="http://www.w3.org/2000/svg">
<path d="M4.10784 3.97276L1.26615 1.03858C1.16525 0.934786 1.02852 0.876596 0.886044 0.876812C0.743564 0.877027 0.607002 0.93563 0.506402 1.03973C0.405801 1.14383 0.349401 1.28489 0.34961 1.4319C0.349819 1.5789 0.406619 1.71979 0.507515 1.82359L3.72597 5.14781C3.8237 5.24825 3.95519 5.30596 4.0931 5.30896C4.231 5.31196 4.36473 5.26 4.46647 5.1639L7.71006 1.82589C7.81096 1.72209 7.86776 1.5812 7.86797 1.4342C7.86818 1.28719 7.81178 1.14613 7.71118 1.04203C7.61058 0.937929 7.47402 0.879325 7.33154 0.87911C7.18906 0.878894 7.05233 0.937084 6.95143 1.04088L4.10784 3.97276Z" fill="#CCCCCC"/>
</svg>
