<svg width="19" height="26" viewBox="0 0 19 26" fill="none" xmlns="http://www.w3.org/2000/svg">
<path fill-rule="evenodd" clip-rule="evenodd" d="M7.56096 25.5764C8.90266 26.1195 10.4174 26.1409 11.7738 25.6375C13.4058 25.0319 14.6927 23.7159 15.2595 22.0654H14.1705C13.6347 23.3154 12.585 24.2928 11.2872 24.7314C10.2477 25.0825 9.10411 25.0662 8.07496 24.6851C6.8372 24.2267 5.83958 23.2734 5.32182 22.0654H4.23292C4.78129 23.6625 6.004 24.9462 7.56096 25.5764ZM11.3936 14.5796C10.3866 14.2832 9.30417 14.2655 8.28798 14.5273C6.59371 14.9641 5.19805 16.1438 4.46836 17.698C4.01514 17.5865 3.65794 17.5728 3.39661 18.0152C3.13239 18.459 3.03378 18.9631 2.9054 19.4667L3.15061 19.8104C3.21332 19.532 3.599 18.238 3.82606 18.1291C4.04543 18.0243 6.04833 18.69 6.17282 18.9642C6.21976 19.068 6.19994 19.1983 6.16652 19.3227C6.12551 19.4961 6.0706 19.6877 6.00551 19.8167C5.90902 20.0075 5.83227 20.0636 5.63582 20.1166C5.51423 20.8285 5.23061 21.6911 4.72131 21.6709C4.31756 21.6551 3.64168 21.7146 3.27176 21.5004C2.95819 21.3192 1.4526 20.0504 1.22062 19.7786C0.725281 19.2142 0.915675 18.1942 1.09896 17.4543L2.29571 12.7514C2.39877 12.139 2.76493 11.6588 3.34417 11.4412L7.08536 10.4366L7.34829 9.74759C7.64993 9.95757 7.96291 10.1351 8.29267 10.2967C9.20269 10.5837 10.2897 10.5837 11.1998 10.2967C11.5295 10.1351 11.8425 9.95757 12.144 9.74759L12.4069 10.4366L16.1482 11.4412C16.7276 11.6588 17.0936 12.139 17.1966 12.7514L18.3934 17.4543C18.5769 18.1942 18.7672 19.2142 18.2717 19.7786C18.0401 20.0504 16.5342 21.3192 16.2206 21.5004C15.8506 21.7146 15.1749 21.6551 14.7711 21.6709C14.2616 21.6911 13.9781 20.8285 13.8566 20.1166C13.6602 20.0636 13.5834 20.0075 13.487 19.8167C13.4217 19.6877 13.3669 19.4961 13.3259 19.3227C13.2926 19.1983 13.2727 19.068 13.3195 18.9642C13.4439 18.69 15.4471 18.0243 15.6663 18.1291C15.8935 18.238 16.2793 19.532 16.3418 19.8104L16.587 19.4667C16.4585 18.9631 16.36 18.459 16.0958 18.0152C15.8345 17.5728 15.4775 17.5865 15.024 17.698C14.3217 16.2021 13.0023 15.0528 11.3936 14.5796ZM10.194 23.2545C11.2164 23.1025 12.0716 22.4379 12.4901 21.5302L13.7682 21.5317C13.598 21.297 13.4645 21.0023 13.3683 20.6856H11.5617C11.378 21.3361 10.8541 21.8439 10.194 22.0044V23.2545ZM14.0486 18.0147C13.4765 16.876 12.466 15.9957 11.2385 15.5957C10.304 15.2912 9.27445 15.2802 8.33455 15.5688C7.07459 15.9558 6.03003 16.851 5.44385 18.0147C5.77744 18.1255 6.25652 18.2832 6.53109 18.4664C6.77361 18.5782 6.79503 18.8246 6.73411 19.057C6.67176 19.3213 6.61962 19.5892 6.54411 19.8497H7.88718C8.03987 18.9611 8.81413 18.285 9.74614 18.285C10.6783 18.285 11.4526 18.9611 11.6052 19.8497H12.9483C12.8727 19.5892 12.8206 19.3213 12.7582 19.057C12.6974 18.8246 12.7188 18.5782 12.9613 18.4664C13.236 18.2832 13.715 18.1255 14.0486 18.0147ZM9.29839 23.2545C8.27604 23.1025 7.42078 22.4379 7.00233 21.5302L5.72427 21.5317C5.89441 21.297 6.02794 21.0023 6.12406 20.6856H7.93066C8.11451 21.3361 8.63842 21.8439 9.29839 22.0044V23.2545ZM12.955 4.30992C11.0287 4.24122 8.46382 4.24789 6.53737 4.30992C6.54692 4.88192 6.58049 5.42854 6.61238 5.99813C6.63712 6.43291 7.29816 6.70623 7.67928 6.82826C8.92523 7.22712 10.5671 7.22712 11.8132 6.82826C12.1942 6.70623 12.8554 6.43291 12.8799 5.99813C12.9119 5.42854 12.9456 4.88192 12.955 4.30992ZM6.2037 6.01887C6.3104 8.06332 13.1821 8.06332 13.2888 6.01887C13.3252 5.56853 13.3505 4.72711 13.3592 4.27844C13.3622 3.94605 13.1548 3.88587 12.898 3.87884C10.8633 3.8218 8.62916 3.8218 6.59445 3.87884C6.33758 3.88587 6.13021 3.94605 6.13317 4.27844C6.14186 4.72711 6.16724 5.56853 6.2037 6.01887ZM8.45188 9.89846C7.86042 9.60826 7.3347 9.26858 6.76414 8.70216C6.23163 8.08465 6.15734 7.27674 5.9023 6.34052C5.78555 5.15893 5.70417 3.81384 5.8573 2.73651C6.11684 0.910532 7.84046 -0.00144116 9.74614 -0.000144958C11.6519 -0.00144116 13.3756 0.910532 13.6351 2.73651C13.7882 3.81384 13.7069 5.15893 13.5902 6.34052C13.3351 7.27674 13.2608 8.08465 12.7282 8.70216C12.1577 9.26858 11.632 9.60826 11.0405 9.89846C10.2557 10.1454 9.23669 10.1454 8.45188 9.89846Z" fill="#231F20"/>
</svg>
