<svg width="17" height="16" viewBox="0 0 17 16" fill="none" xmlns="http://www.w3.org/2000/svg">
<path d="M8.90143 0.431515L16.5975 6.40305C16.9353 6.76682 16.6727 7.3439 16.2113 7.3439H15.8535H15.6035V7.5939V15.7247C15.6035 15.7277 15.6032 15.73 15.6029 15.7316H14.0107C14.0104 15.73 14.0101 15.7277 14.0101 15.7247V7.5939V7.3439H13.7601H3.23985H2.98985V7.5939V15.7247C2.98985 15.7277 2.98958 15.73 2.98928 15.7316H1.39712C1.39681 15.73 1.39654 15.7277 1.39654 15.7247V7.5939V7.3439H1.14654H0.788742C0.327457 7.3439 0.0648537 6.76717 0.402197 6.40338L8.09869 0.431515L8.11236 0.420905L8.12445 0.408512C8.33049 0.19716 8.66965 0.197167 8.87567 0.408508L8.88775 0.420903L8.90143 0.431515Z" fill="black" stroke="black" stroke-width="0.5"/>
<path d="M5.22249 15.8463H5.40965L5.40587 15.672C5.39358 15.6499 5.38623 15.6242 5.38623 15.5963L5.22249 15.8463ZM5.22249 15.8463C5.19238 15.8076 5.16896 15.7633 5.15417 15.7153C5.14256 15.6777 5.13627 15.6378 5.13623 15.5966L5.22249 15.8463ZM5.98539 14.7484L6.23617 14.6644L6.23861 14.4L5.98782 14.484L5.98539 14.7484ZM5.21564 15.0063L5.39016 14.9478L5.38617 14.7638L5.13623 14.7692L5.21564 15.0063ZM6.2276 15.5963H6.2276H6.2276Z" fill="black" stroke="black" stroke-width="0.5"/>
<path d="M11.6765 10.7817L11.7278 10.964H11.9172H12.2756V11.1431H12.1791H12.0962H12.0962V11.3931V11.3932L11.9467 11.5935C12.2771 11.8399 12.5047 12.2399 12.5255 12.686L12.3133 14.4094L12.3114 14.4246V14.4399C12.3114 14.5177 12.2487 14.5754 12.1857 14.5754H4.88586C4.82541 14.5754 4.76007 14.5204 4.76007 14.4399V14.4246L4.7582 14.4094L4.54549 12.6816C4.55004 12.2345 4.762 11.8375 5.08901 11.5935L5.27446 11.4551L5.64575 11.3601C5.68034 11.3512 5.73483 11.3496 5.83422 11.3496H11.2017C11.2758 11.3496 11.3409 11.3503 11.4021 11.3628L11.8049 11.4452L11.6927 11.0497L11.1201 9.0307L11.1027 8.96931L11.058 8.92378L11.0572 8.92294C11.0539 8.91955 11.0459 8.91144 11.0379 8.90411C11.0287 8.89568 11.0071 8.8765 10.9754 8.86029C10.9392 8.84177 10.9053 8.83481 10.8799 8.83219C10.8689 8.83107 10.8598 8.83079 10.8548 8.83069L10.8438 8.8306H6.17406C6.17387 8.8306 6.17362 8.8306 6.17333 8.8306C6.1695 8.83059 6.15711 8.83057 6.14389 8.83147C6.13027 8.8324 6.10172 8.83501 6.06869 8.84628C6.03388 8.85816 5.98285 8.88358 5.94217 8.93719C5.91458 8.97353 5.89995 9.01199 5.89316 9.04727L5.34267 11.0517L5.31755 11.1431H4.93951H4.76007V10.964H5.13631H5.32567L5.37697 10.7817L5.87727 9.0037C5.91963 8.86537 6.05897 8.76154 6.19189 8.76154H10.8616C11.0035 8.76154 11.1349 8.85538 11.1754 9.00067L11.1756 9.00136L11.6765 10.7817ZM9.78771 13.934L9.72875 13.874C9.73044 13.8719 9.73212 13.8697 9.73379 13.8675C9.77569 13.8123 9.78771 13.7522 9.78771 13.7058V13.5957C9.78771 13.5073 9.74692 13.4383 9.70531 13.3957C9.66417 13.3536 9.59427 13.3089 9.5019 13.3089H7.49806H7.39212L7.31843 13.3851L7.49806 13.5589C7.31843 13.3851 7.31839 13.3851 7.31835 13.3852L7.31827 13.3852L7.31809 13.3854L7.31774 13.3858L7.31701 13.3866L7.31543 13.3882L7.31183 13.3921C7.30926 13.395 7.30625 13.3984 7.30296 13.4024C7.29658 13.4101 7.28807 13.421 7.27923 13.4347C7.26663 13.4541 7.23022 13.5134 7.23022 13.5957V13.7058H7.48022C7.23022 13.7058 7.23022 13.7059 7.23022 13.706L7.23022 13.7063L7.23022 13.7068L7.23022 13.7077L7.23025 13.7098L7.23035 13.7141L7.23086 13.724C7.23134 13.7309 7.2322 13.7393 7.23373 13.7488C7.2366 13.7664 7.24281 13.7939 7.25772 13.8245C7.26466 13.8387 7.27405 13.8547 7.28655 13.8709C7.28202 13.8767 7.27761 13.8829 7.27338 13.8894C7.24232 13.9372 7.23022 13.9892 7.23022 14.0362V14.1463L7.23022 14.1471C7.23021 14.151 7.23019 14.1631 7.23102 14.176C7.23187 14.1892 7.23427 14.2167 7.24463 14.2487C7.25536 14.2818 7.2791 14.3332 7.33173 14.3753C7.38711 14.4195 7.44893 14.4331 7.49806 14.4331H9.5019C9.59461 14.4331 9.66465 14.3881 9.70576 14.3459C9.74719 14.3033 9.78771 14.2344 9.78771 14.1463V14.0362V13.934ZM9.62299 13.9525L9.53771 14.0362C9.57247 14.0021 9.60045 13.9746 9.62297 13.9525L9.62299 13.9525ZM6.3529 13.552C6.62224 13.552 6.83553 13.3239 6.83553 13.0633V12.8614C6.83553 12.6009 6.62225 12.3728 6.3529 12.3728H5.44046C5.17112 12.3728 4.95783 12.6009 4.95783 12.8614V13.0633C4.95783 13.3239 5.17111 13.552 5.44046 13.552H6.3529ZM11.5774 13.552C11.8467 13.552 12.06 13.3239 12.06 13.0633V12.8614C12.06 12.6009 11.8467 12.3728 11.5774 12.3728H10.6649C10.3956 12.3728 10.1823 12.6009 10.1823 12.8614V13.0633C10.1823 13.3239 10.3956 13.552 10.6649 13.552H11.5774Z" fill="black" stroke="black" stroke-width="0.5"/>
<path d="M11.6863 14.7298L11.6322 15.5804L11.6317 15.5883V15.5962C11.6317 15.6844 11.5587 15.75 11.488 15.75H11.1839C11.1355 15.75 11.086 15.7192 11.0597 15.6715L11.058 15.5912L11.0442 14.8984L11.6863 14.7298Z" fill="black" stroke="black" stroke-width="0.5"/>
</svg>
