<svg width="20" height="18" viewBox="0 0 20 18" fill="none" xmlns="http://www.w3.org/2000/svg">
<path d="M17.6131 2.42636C17.1736 1.97828 16.6517 1.62283 16.0774 1.38032C15.5031 1.13781 14.8875 1.01299 14.2658 1.01299C13.6441 1.01299 13.0285 1.13781 12.4541 1.38032C11.8798 1.62283 11.358 1.97828 10.9185 2.42636L10.0064 3.35584L9.09426 2.42636C8.65531 1.97552 8.13333 1.61744 7.55826 1.37267C6.98318 1.1279 6.36634 1.00126 5.74312 1.00001C5.1199 0.99876 4.50258 1.12293 3.92656 1.36539C3.35055 1.60785 2.82718 1.96383 2.3865 2.41291C1.94582 2.86199 1.59649 3.39532 1.35856 3.9823C1.12063 4.56929 0.998783 5.19838 1.00001 5.83347C1.00124 6.46856 1.12551 7.09715 1.3657 7.68317C1.6059 8.2692 1.95728 8.80113 2.3997 9.24844L3.31181 10.1779L10.0064 17L16.7009 10.1779L17.6131 9.24844C18.0528 8.80057 18.4016 8.2688 18.6395 7.68353C18.8775 7.09825 19 6.47093 19 5.8374C19 5.20387 18.8775 4.57654 18.6395 3.99126C18.4016 3.40599 18.0528 2.87422 17.6131 2.42636Z" fill="black" stroke="black" stroke-width="1.5" stroke-linecap="round" stroke-linejoin="round"/>
</svg>
