<svg width="22" height="22" viewBox="0 0 22 22" fill="none" xmlns="http://www.w3.org/2000/svg">
<g clip-path="url(#clip0_1743_19238)">
<path d="M15.5589 0H6.43704L0 6.43704V15.5548L6.43704 22H15.5548L22 15.5589V6.43704L15.5589 0ZM11 17.4778C10.6857 17.4778 10.3786 17.3846 10.1173 17.21C9.85597 17.0354 9.65232 16.7873 9.53206 16.4969C9.4118 16.2066 9.38033 15.8871 9.44164 15.5789C9.50295 15.2707 9.65427 14.9876 9.87649 14.7654C10.0987 14.5432 10.3818 14.3918 10.69 14.3305C10.9982 14.2692 11.3177 14.3007 11.608 14.4209C11.8984 14.5412 12.1465 14.7449 12.3211 15.0061C12.4957 15.2674 12.5889 15.5746 12.5889 15.8889C12.5893 16.0977 12.5485 16.3045 12.4688 16.4974C12.3891 16.6904 12.2721 16.8657 12.1245 17.0134C11.9768 17.161 11.8015 17.278 11.6086 17.3577C11.4156 17.4374 11.2088 17.4782 11 17.4778ZM12.2222 12.2222H9.77778V4.88889H12.2222V12.2222Z" fill="#9A9EA7"/>
</g>
<defs>
<clipPath id="clip0_1743_19238">
<rect width="22" height="22" fill="white"/>
</clipPath>
</defs>
</svg>
