<svg id="Horizon_auto_Logo_round_only_11-02-2022_InProgress_V4_2_" data-name="Horizon_auto_Logo_round_only_11-02-2022_InProgress_V4 (2)" xmlns="http://www.w3.org/2000/svg" width="882.873" height="885" viewBox="0 0 882.873 885">
  <g id="Group_2064" data-name="Group 2064">
    <path id="Path_8867" data-name="Path 8867" d="M196.721,525.113c0,.554.334,1.009.757,1.009h7.82c5.145,0,9.334-5.484,9.334-12.223V462.935c0-4.087,2.536-7.422,5.656-7.422H390.7c3.119,0,5.668,3.336,5.668,7.422v62.178c0,.554.336,1.009.759,1.009h7.816c5.149,0,9.073-8.8,9.073-15.536l.263-150.749a.907.907,0,0,0-.771-1.008H405.7c-5.144,0-9.335,5.484-9.335,12.223v50.963c0,4.086-2.549,7.422-5.668,7.422H220.289c-3.12,0-5.656-3.336-5.656-7.422V359.836a.918.918,0,0,0-.769-1.008h-7.808c-5.146,0-9.334,5.484-9.334,12.223V525.113Z" stroke="#000" stroke-width="4"/>
    <path id="Path_8868" data-name="Path 8868" d="M426.291,526.172c5.586,0,9.594-2.687,12.929-7.187l99.146-133.84a8.278,8.278,0,0,1,5.925-2.978,7.344,7.344,0,0,1,5.908,2.978l99.129,133.84a17.818,17.818,0,0,0,14.263,7.188h21.434L569.272,370.947c-4.809-6.476-15.315-11.171-25-11.171s-20.187,4.695-24.98,11.171L409.307,526.13l16.984.042Z" stroke="#000" stroke-miterlimit="10" stroke-width="4"/>
  </g>
  <path id="Path_8869" data-name="Path 8869" d="M881.86,421.014l-25.971,1.243C845.268,200.337,662.751,26.5,440.373,26.5A417.093,417.093,0,0,0,133.248,161.907l-19.19-17.542A441.338,441.338,0,0,1,360.092,7.773h0q1.359-.249,2.719-.49h0l.68-.12h0c.908-.159,1.813-.315,2.723-.469h.006l.167-.028h0l.166-.028.009,0,.164-.028h0q1.109-.186,2.219-.366h0l.681-.11h.006c.684-.11,1.363-.218,2.048-.325h0l.167-.026h.006l.159-.024.017,0,.157-.024.015,0,.151-.023.027,0,.149-.023.021,0,.15-.023.025,0,.148-.023.024,0,.147-.023.027,0,.15-.023h.009c.572-.087,1.136-.172,1.709-.257h0l.158-.023.022,0,.148-.022.025,0,.146-.022.031,0,.141-.021.035-.005.137-.02.04-.006.137-.02.029,0,.148-.022.018,0,.157-.023.01,0c.515-.075,1.018-.147,1.534-.22h.008l.159-.023.016,0,.146-.021.033,0,.139-.02.036-.005.135-.019.041-.006.139-.019.031,0,.144-.02.029,0,.148-.02.022,0,.153-.021.017,0c.574-.079,1.127-.155,1.7-.232l.013,0,.156-.021.018,0,.146-.02.033,0,.141-.019.034,0,.138-.018.041-.005.134-.017.039-.005.138-.018.035,0,.143-.019.025,0,.151-.02.022,0,.153-.02.017,0,.156-.021.014,0,1.18-.152.022,0,.14-.018.038,0,.137-.017.039-.005.136-.017.038,0,.136-.017.041-.005.131-.016.047-.006.128-.016.048-.006.129-.016.043-.005.133-.017.044-.005.128-.016.05-.006.131-.016.032,0,.146-.018.017,0,1.013-.124.014,0L387,3.69l.026,0,.138-.016.041-.005.129-.015.047-.006.126-.015.052-.006.125-.015.05-.006.128-.015.048-.006.128-.015.048-.006.128-.015.049-.006.129-.015.043-.005.134-.016.042-.005.135-.016.035,0,.142-.016.027,0,.151-.017h0l.853-.1.016,0,.141-.016.037,0,.134-.015.043,0,.13-.015.048-.005.123-.014.055-.006.122-.014.056-.006.119-.013.057-.006.124-.014.051-.006.124-.014.054-.006.124-.014.052-.006.124-.014.051-.005.128-.014.045-.005.133-.014.035,0L393.089,3h0l.152-.016.026,0,.137-.014.043,0,.126-.013.053-.006.119-.012.06-.006.118-.012.057-.006.121-.013.058-.006.118-.012.06-.006.115-.012.066-.007.113-.011.062-.006.116-.012.062-.006.116-.012.062-.006.113-.012.073-.007.106-.011.055-.005.127-.013h0l.507-.051.016,0,.129-.013.049,0,.114-.011.068-.007.1-.01.077-.008.108-.011.067-.006.111-.011.067-.006.116-.011.06-.006.113-.011.068-.007.112-.011.065-.006.112-.011.066-.006.114-.011.066-.006.107-.01.077-.007.107-.01.061-.006.117-.011.052-.005.131-.012h.015l.159-.015.022,0,.634-.059.05,0,.118-.011.06-.005.118-.011.06-.005.119-.011.059-.005.113-.01.069-.006.108-.01.071-.006.106-.01.077-.007.1-.009.08-.007.1-.009.083-.007.1-.009.072-.006.109-.01.065-.005.117-.01.054,0,.122-.011.061-.005.119-.01.051,0,.128-.011.034,0,.626-.054.048,0,.124-.01.054,0,.121-.01.059-.005.12-.01.059-.005.115-.01.065-.005.113-.01.066-.005.109-.009.074-.006L403.7,2l.069-.005.108-.009.073-.006.11-.009.064-.005.116-.009.059,0,.124-.01.048,0,.129-.01.052,0,.128-.01.045,0,.131-.01.042,0,.487-.038h0l.124-.01.058,0,.115-.009.064,0,.107-.008.076-.006.1-.007.086-.007.088-.007.1-.007.088-.007.089-.007.094-.007.088-.007.093-.007.086-.007.092-.007.091-.007.092-.007.083-.006.1-.007.081-.006.1-.007.088-.007.09-.006.1-.007.085-.006.085-.006.1-.007.064,0,.426-.031.043,0,.124-.009.055,0,.113-.008.069,0,.1-.007.085-.006.1-.007.074-.005.106-.007.075-.005.106-.007.074-.005.1-.007.078-.005.1-.007.074-.005.1-.007.074-.005.109-.007.074,0,.1-.007.082-.005.1-.007.073,0,.106-.007.075-.005.108-.007.071,0,.108-.007.074,0,.4-.026.061,0,.094-.006L412,1.4l.1-.006.082-.005.1-.006.08-.005.1-.006.081-.005.1-.006.083-.005.1-.006.079,0,.1-.006.079,0,.1-.006.074,0,.1-.006.086-.005.092-.005.089-.005.092-.005.091-.005.091-.005.086-.005.1-.006.086-.005.094-.006.086,0,.1-.006.09-.005.091-.005.1-.006.163-.009.094-.005.082,0,.1-.006.087,0,.093-.005.092-.005.089-.005.1-.005.083,0,.1-.005.084,0,.1-.005.08,0,.1-.005.082,0,.1-.006.079,0,.1-.005.085,0,.1-.005.082,0,.1-.005.085,0,.1-.005.088,0,.089,0,.1-.005.082,0,.114-.006.065,0,.117-.006.069,0,.18-.009h.029l.152-.008.072,0,.111-.006.085,0,.093,0,.1,0,.085,0,.092,0,.091,0,.087,0,.1,0,.087,0,.09,0,.1,0,.088,0,.093,0,.089,0,.093,0,.092,0,.091,0,.087,0,.1,0,.09,0,.091,0,.091,0,.09,0,.1,0,.084,0,.094,0,.089,0,.1,0,.082,0,.181-.008.035,0L421.345.9l.087,0,.094,0,.091,0,.093,0,.08,0,.1,0,.086,0,.1,0,.089,0,.091,0,.094,0,.09,0,.087,0,.1,0,.085,0,.1,0,.085,0,.1,0,.084,0,.1,0,.076,0,.109,0,.076,0,.108,0,.074,0,.106,0,.08,0,.115,0,.064,0,.13,0,.055,0,.364-.013.063,0,.122,0,.069,0,.111,0,.084,0,.1,0,.09,0,.09,0,.093,0,.092,0,.088,0,.1,0,.087,0,.1,0,.088,0,.092,0,.09,0,.1,0,.083,0,.1,0,.089,0,.093,0,.09,0,.091,0,.093,0,.093,0,.09,0,.093,0,.091,0,.1,0,.079,0,.172-.005h.045l.147,0,.067,0,.116,0,.085,0,.1,0,.092,0,.091,0,.092,0,.093,0,.089,0,.094,0,.089,0,.1,0,.079,0,.105,0,.081,0,.1,0,.082,0,.1,0,.086,0,.1,0,.083,0,.1,0,.087,0,.1,0,.087,0,.1,0,.089,0,.1,0,.076,0,.109,0,.077,0,.152,0,.075,0,.135,0L431,.6l.109,0,.083,0,.1,0,.1,0,.087,0,.091,0,.094,0,.084,0,.1,0,.081,0,.1,0h.085l.1,0,.085,0,.1,0,.085,0,.1,0h.084l.1,0,.087,0,.1,0,.084,0,.1,0h.078l.11,0h.075l.108,0h.077l.119,0h.064l.366-.005h.078l.105,0h.26l.11,0h10.875l.123,0h.23l.128,0h.05l.351,0h.051l.127,0h.055l.118,0h.078l.1,0h.072l.1,0h.073l.1,0h.076l.1,0h.083l.093,0h.079l.1,0h.077l.1,0,.077,0,.1,0h.077l.1,0h.073l.1,0h.073l.1,0h.077l.095,0,.084,0,.092,0,.082,0,.095,0,.078,0,.1,0,.082,0,.09,0,.085,0,.095,0,.079,0,.1,0,.077,0,.1,0,.073,0,.1,0,.079,0,.1,0,.075,0,.108,0,.065,0,.111,0,.067,0,.1,0,.07,0,.11,0,.066,0,.119,0,.055,0,.123,0h.055l.1,0,.078,0,.1,0,.071,0,.35.009.073,0,.1,0,.078,0,.1,0,.07,0,.106,0,.08,0,.093,0,.09,0,.084,0,.09,0,.087,0,.077,0,.1,0,.072,0,.1,0,.073,0,.1,0,.076,0,.1,0,.074,0,.1,0,.076,0,.1,0,.078,0,.1,0,.082,0,.094,0,.078,0,.1,0,.082,0,.091,0,.083,0,.09,0,.087,0,.09,0,.081,0,.1,0,.083,0,.086,0,.089,0,.084,0,.093,0,.083,0,.088,0,.09,0,.085,0,.091,0,.082,0,.093,0,.083,0,.1,0,.076,0,.1,0,.083,0,.08,0,.094,0,.076,0,.1,0,.073,0,.1,0,.08,0,.206.008.061,0,.093,0,.08,0,.081,0,.1,0,.07,0,.1,0,.085,0,.089,0,.091,0,.081,0,.088,0,.091,0,.075,0,.1,0,.075,0,.1,0,.075,0,.1,0,.079,0,.1,0,.076,0,.1,0,.081,0,.094,0,.082,0,.09,0,.085,0,.091,0,.083,0,.088,0,.088,0,.087,0,.087,0,.085,0,.088,0,.09,0,.084,0,.087,0,.087,0,.088,0,.088,0,.083,0,.091,0,.088,0,.085,0,.092,0,.081,0,.1,0,.076,0,.1,0,.077,0,.1,0,.08,0,.086,0,.088,0,.083,0,.092,0,.075,0,.1.005.076,0,.1.005.082,0,.091,0,.108.006.065,0,.174.009h.029l.144.008.088,0,.084,0,.1.005.076,0,.087,0,.088,0,.081,0,.095.005.074,0,.1.005.077,0,.1.005.071,0,.1.006.075,0,.1.005.08,0,.092.005.086.005.089,0,.082,0,.091.005L466,1.23l.083,0,.087.005.088.005.088.005.085.005.084,0,.091.005.087.005.083,0,.089.005.087.005.087.005.089.005.082.005.091.005.085.005.091.005.079,0,.1.006.08,0,.1.006.073,0,.1.006.077,0,.093.006.079.005.095.006.08,0,.095.006.077,0,.084.005.095.006.069,0,.1.006.092.006.082.005.118.008.053,0,.129.008.046,0,.173.011.036,0,.135.009.069,0,.108.007.068,0,.1.007.082.005.095.006.069,0,.1.007.065,0,.111.008.065,0,.1.007.081.005.094.007.08.005.091.006.082.006.095.007.079.005.09.006.086.006.091.006.076.005.1.007.073.005.1.007.077.005.092.007.082.006.094.007.078.005.094.007.078.005.1.007.076.005.093.007.082.006.1.007.075.005.1.008.069.005.107.008.068.005.1.007.078.006.095.007.077.006.1.007.076.006.1.008.076.006.087.007.088.007.091.007.078.006.114.009.058,0,.114.009.062.005.119.009.052,0,.52.041.054,0,.118.009.059,0,.117.01.036,0,.139.011.038,0,.134.011.05,0,.122.01.063.005.109.009.065.005.107.009.071.006.1.008.069.006.1.009.071.006.107.009.059,0,.115.01.061.005.112.01.062.005.11.009.064.005.111.01.061.005.11.009.067.006.108.009.063.005.108.009.069.006.106.009.063.005.108.009.069.006.1.009.069.006.1.009.071.006.109.01.059.005.114.01.061.005.113.01.059.005.108.01.068.006.111.01.058.005.125.011.048,0,.136.012.036,0,.128.011.048,0,.692.063.018,0,.329.03.027,0,.146.014.036,0,.133.012.052.005.125.011.043,0,.124.012.061.006.113.011.06.006.108.01.068.007.109.01.056.005.115.011.06.006.113.011.059.006.112.011.062.006.114.011.056.005.113.011.062.006.115.011.054.005.115.011.06.006.113.011.061.006.108.011.065.006.108.011.064.006.108.011.063.006.109.011.064.006.1.01.071.007.1.01.076.008.1.01.072.007.117.012.051.005.119.012.055.005.119.012.052.005.125.013.047,0,.161.017h.009l.693.072.028,0,.143.015.043,0,.129.014.043,0,.13.014.045,0,.125.013.056.006.116.012.059.007.114.012.055.006.115.012.061.007.113.012.054.006.117.013.059.006.11.012.064.007.106.012.068.007.1.011.065.007.108.012.063.007.11.012.058.006.113.013.062.007.109.012.063.007.11.012.061.007.114.013.056.006.114.013.06.007.11.012.063.007.106.012.068.008.107.012.062.007.108.012.067.008.108.012.059.007.119.014.052.006.127.015.043,0,.126.015.048.006.153.018.015,0,.865.1h.009l.163.019.026,0,.142.017.055.006.117.014.052.006.12.014.047.006.126.015.049.006.117.014.062.008.113.014.051.006.12.015.051.006.122.015.052.006.116.014.06.007.113.014.055.007.118.015.051.006.122.015.051.006.115.014.062.008.11.014.06.007.112.014.057.007.114.014.059.008.11.014.06.008.114.014.056.007.118.015.051.007.118.015.056.007.106.014.068.009.1.013.067.009.109.014.06.008.118.015.052.007.124.016.046.006.147.019.021,0,1.2.157.024,0,.146.019.038.005.133.018.043.005.128.017.047.006.123.016.053.007.118.016.051.007.119.016.057.008.114.016.053.007.119.016.051.007.122.016.044.006.129.017.043.006.126.017.047.006.12.016.057.008.113.016.056.008.117.016.054.008.119.016.05.007.119.016.055.008.117.016.051.007.12.016.054.008.114.016.056.008.11.015.063.009.114.016.052.007.121.017.051.007.128.018.04.005.129.018.043.006.15.021.015,0,.154.022.019,0,.162.023h.008l.165.023h.007l.686.1.011,0,.161.023h0l.164.024.03,0,.14.02.037.005.13.019.051.008.122.018.042.006.128.019.044.006.128.019.041.006.129.019.04.006.134.02.034,0,.133.02.044.006.125.019.05.007.115.017.06.009.112.016.057.009.111.017.06.009.111.017.058.009.112.017.056.009.115.017.056.008.111.017.06.009.109.016.062.01.105.016.064.01.111.017.058.009.112.017.056.009.123.019.044.007.13.02.038.006.141.022.028,0,.139.022.033.005.153.024.015,0,.167.026h0l1.026.161h.005l.165.026.01,0,.157.025.028,0,.142.023.028,0,.142.023.032.005.138.022.029,0,.141.023.032.005.137.022.034.005.133.022.043.007.126.021.042.007.124.02.052.009.117.019.049.008.122.02.049.008.121.02.046.008.12.02.054.009.116.019.052.009.115.019.057.009.116.019.049.008.118.02.055.009.12.02.045.007.127.021.043.007.141.023.022,0,.143.024.031.005L514,6.6l.023,0,.15.025.02,0,.327.055.012,0,1.359.232.02,0,.153.026h0l.166.029.011,0,.16.028h.008l.155.027.034.006.138.024.029.005.136.024.039.007.131.023.039.007.125.022.05.009.122.022.041.007.128.023.04.007.128.022.044.008.119.021.053.009.117.021.053.01.114.02.054.01.119.021.049.009.114.02.059.01.111.02.055.01.119.021.046.008.129.023.039.007.126.023.043.008.136.025.029.005.142.026.026,0,.148.027.021,0,.147.026.023,0c.68.123,1.352.248,2.03.374l.014,0,.156.029.012,0,.152.029.03.005.138.026.031.006.136.026.036.007.135.025.029.005.139.026.033.006.134.025.034.006.133.025.036.007.138.027.024,0,.141.027.033.006.137.026.029.006.135.026.036.007.144.027.017,0,.151.029.019,0,.157.03.009,0,.152.029.021,0,.156.03.009,0,.161.031.007,0c.79.153,1.576.308,2.364.465h.005l.164.033h0l.166.033h.006l.162.032h.007l.156.032.023,0,.147.03.02,0,.145.029.028.006.141.029.027.005.136.028.035.007.137.028.027.006.137.028.036.007.13.027.039.008.128.026.04.008.131.027.035.007.131.027.037.008.133.028.032.007.137.028.03.006.142.029.024.005.144.03.023,0,.149.031.018,0,.154.032.013,0,.166.035h0q1.178.246,2.354.5h0l.162.035.013,0,.154.033.016,0,.149.032.023.005.146.031.02,0,.146.031.024.005.143.031.023.005.144.031.024.005.143.031.023,0,.142.031.029.006.139.031.026.006.142.031.025.005.144.032.022,0,.143.031.026.006.145.032.019,0,.153.034.013,0,.329.072h0q1.173.26,2.343.525h0l.164.038h0l.161.037.019,0,.148.034.016,0,.149.034.02,0,.148.034.018,0,.146.034.024.005.143.033.022.005.145.033.02,0,.145.034.023.005.136.031.036.008.133.031.03.007.136.031.029.007.141.032.024.006.137.032.032.008.139.032.024.005.152.035.01,0,.161.038h.005l.161.038.006,0q1.335.313,2.665.632h0l.164.039h0l.163.039h0l.162.039.008,0,.157.038.013,0,.156.038.007,0,.158.038.01,0,.154.037.015,0,.145.035.026.006.144.035.016,0,.149.036.017,0,.148.036.018,0,.148.036.017,0,.159.039h0l.163.04h.005l.329.081h0q1.495.37,2.985.749h0l.328.083.006,0,.162.041.159.041.017,0,.149.038.015,0,.146.038.023.006.147.038.013,0,.149.038.018,0,.149.038.014,0,.152.039.012,0,.159.041h0l.162.042h0l.164.042h0l.164.042h0q1.819.474,3.63.962c.013,0-.012,0,0,0l.163.044h0l.159.043.012,0,.156.042h0l.161.044h0l.328.089h0l.328.089h0c1.426.389,2.843.785,4.264,1.188l.011,0,.156.044h0l.162.046h0l.327.093h0c178.359,50.955,310.627,211.12,319.829,403.56Zm.513,21.486c0,244.11-197.89,442-442,442h-6.316l-.1,0h-.618l-.094,0-.085,0h-.176l-.095,0-.088,0h-.088l-.088,0h-.091l-.082,0-.1,0-.078,0-.1,0-.078,0-.1,0-.079,0-.1,0-.081,0-.1,0h-.078l-.1,0-.078,0-.1,0-.081,0-.1,0-.082,0-.1,0-.078,0-.1,0-.08,0-.1,0-.077,0-.1,0-.079,0-.1,0-.076,0-.1,0-.076,0-.1,0-.08,0-.1,0-.08,0-.1,0-.078,0-.1,0-.082,0-.093,0-.083,0-.094,0-.085,0-.093,0-.081,0-.1,0-.082,0-.095,0-.082,0-.1,0-.083,0-.094,0-.082,0-.1,0-.08,0-.1,0-.077,0-.1,0-.081,0-.1,0-.076,0-.1,0-.071,0-.107,0-.069,0-.108,0-.072,0-.1,0-.075,0-.1,0-.074,0-.1,0-.07,0-.1,0-.078,0-.1,0-.078,0-.1,0-.08,0-.1,0-.076,0-.1,0-.08,0-.1,0-.078,0-.1,0-.078,0-.1,0-.079,0-.1,0-.083,0-.094,0-.079,0-.1,0-.08,0-.1,0-.078,0-.1,0-.081,0-.094,0-.082,0-.095,0-.084,0-.093,0-.081,0-.1,0-.084,0-.091,0-.084,0-.093,0-.085,0-.09,0-.086,0-.09,0-.088,0-.09,0-.085,0-.091,0-.087,0-.091,0-.082,0-.095,0-.084,0-.094,0-.078,0-.1,0-.076,0-.1,0-.075,0-.1,0-.079,0-.1,0-.079,0-.1,0-.083,0-.095,0-.078,0-.1,0-.082,0-.094,0-.08,0-.1,0-.08,0-.1,0-.077,0-.1,0-.079,0-.1,0-.075,0-.1,0-.075,0-.1,0-.072,0-.1,0-.078,0-.1,0-.078,0-.1,0-.075,0-.1-.005-.07,0-.1-.005-.077,0-.1-.005-.077,0-.1,0-.079,0-.1,0-.076,0-.1-.005-.079,0-.1,0-.077,0-.1-.005-.078,0-.1-.005-.074,0-.1-.005-.075,0-.1-.005-.074,0-.1-.005-.077,0-.1-.005-.07,0-.1-.006-.076,0-.1-.005-.074,0-.1-.006-.073,0-.105-.006-.068,0-.106-.006-.073,0-.1-.006-.072,0-.1-.006-.075,0-.105-.006-.066,0-.108-.006-.072,0-.1-.006-.069,0-.107-.006-.071,0-.105-.006-.069,0-.105-.006-.074,0-.1-.006-.073,0-.1-.006-.071,0-.109-.007-.064,0-.111-.007-.067,0-.113-.007-.059,0-.115-.007-.064,0-.111-.007-.064,0-.108-.007-.072,0-.1-.006-.071,0-.107-.007-.069,0-.111-.007-.062,0-.108-.007-.074,0-.1-.006-.07,0-.108-.007-.069,0-.108-.007-.066,0-.107-.007-.071,0-.107-.007-.066,0-.112-.007-.065,0-.114-.007-.06,0-.108-.007-.072-.005-.107-.007-.064,0-.114-.008-.064,0-.114-.008-.059,0-.113-.008-.065,0-.112-.008-.061,0-.112-.008-.066,0-.12-.008-.051,0-.116-.008-.065,0-.115-.008-.056,0-.121-.009-.056,0-.122-.009-.051,0-.117-.009-.062,0-.118-.009-.054,0-.118-.009-.06,0-.118-.008-.055,0-.109-.008-.07-.005-.107-.008-.065,0-.11-.008-.067-.005-.113-.008-.059,0-.118-.009-.058,0-.128-.01-.044,0-.126-.01-.051,0-.133-.01-.041,0-.12-.009-.059,0-.116-.009-.058,0-.121-.01-.054,0-.13-.01-.043,0-.123-.01-.054,0-.144-.011-.028,0-.145-.011-.031,0-.314-.025-.037,0-.161-.013h-.011l-.162-.013h-.013l-1.023-.083-.029,0c-1.4-.115-2.8-.237-4.192-.366l-.022,0-.675-.063-.022,0-.676-.064-.02,0-.156-.015h-.005l-.169-.016h-.008l-.339-.033-.019,0-.158-.015h0l-.169-.016-.022,0-.153-.015h-.013l-.156-.015-.047,0-.127-.012-.045,0-.13-.013-.039,0-.136-.013-.036,0-.137-.014-.041,0-.134-.013-.04,0-.132-.013-.044,0-.131-.013-.044,0-.126-.013-.058-.006-.118-.012-.046,0-.127-.013-.05-.005-.124-.013-.051-.005-.12-.012-.056-.006-.122-.013-.039,0-.133-.014-.044,0-.131-.013-.044,0-.127-.013-.053-.005-.122-.013-.048-.005-.126-.013-.046-.005-.128-.013-.045-.005-.128-.013-.044,0-.131-.014-.038,0-.135-.015-.04,0-.135-.015-.038,0-.13-.014-.054-.006-.124-.013-.041,0-.131-.014-.046-.005-.127-.014-.047-.005-.126-.014-.048-.005-.127-.014-.044-.005-.13-.014-.04,0-.134-.015-.04,0-.13-.014-.051-.006-.123-.014-.051-.006-.122-.014-.051-.005-.126-.014-.045-.005-.126-.014-.05-.005-.124-.014-.048-.005-.125-.014-.048-.005-.128-.015-.046-.005-.124-.014-.054-.006-.123-.014-.045-.005-.129-.015-.043,0-.131-.015-.043,0-.126-.015-.052-.006-.124-.014-.046-.006-.126-.015-.047-.005-.128-.015-.044-.005-.125-.015-.055-.006-.118-.014-.055-.007-.118-.014-.053-.006-.122-.014-.051-.006-.12-.014-.055-.007-.119-.014-.053-.006-.122-.015-.048-.006-.126-.015-.048-.006-.121-.015-.056-.007-.12-.014-.051-.006-.122-.015-.051-.006-.124-.015-.049-.006-.121-.015-.053-.007-.122-.015-.048-.006-.126-.016-.044-.005-.13-.016-.043-.005-.125-.016-.052-.006-.122-.015-.05-.006-.124-.016-.048-.006-.125-.016-.049-.006-.122-.015-.049-.006-.125-.016-.046-.006-.127-.016-.045-.006-.128-.016-.047-.006-.12-.015-.058-.007-.114-.015-.059-.007-.114-.015-.057-.007-.117-.015-.056-.008-.113-.014-.06-.008-.117-.015-.052-.007-.123-.016-.046-.006-.127-.016-.047-.006-.12-.016-.057-.008-.116-.015-.055-.007-.117-.016-.055-.007-.122-.016-.048-.006-.121-.016-.054-.007-.118-.016-.055-.007-.117-.016-.054-.007-.12-.016-.053-.007-.114-.015-.062-.008-.111-.015-.059-.008-.112-.015-.06-.008-.116-.016-.054-.007-.116-.016-.057-.008-.119-.016-.052-.007-.122-.016-.048-.007-.126-.017-.048-.006-.118-.016-.056-.008-.119-.016-.051-.007-.121-.016-.05-.007-.124-.017-.047-.006-.122-.017-.051-.007-.123-.017-.049-.007-.125-.018-.044-.006-.133-.019-.038-.005-.126-.018-.05-.007-.126-.018-.043-.006-.129-.018-.042-.006-.132-.019-.039-.005-.13-.018-.043-.006-.133-.019-.037-.005-.135-.019-.035-.005-.135-.019-.039-.006-.127-.018-.047-.007L377.04,880l-.045-.006-.131-.019-.037-.005-.138-.02-.034-.005-.133-.019-.041-.006-.132-.019-.039-.006-.138-.02-.031,0-.14-.02-.034-.005-.128-.019-.048-.007-.124-.018-.047-.007-.129-.019-.04-.006-.135-.02-.036-.005-.133-.02-.039-.006-.139-.021-.03,0-.147-.022-.022,0-.147-.022-.026,0-.133-.02-.043-.006-.129-.019-.041-.006-.135-.02-.034-.005-.142-.021-.03,0-.142-.021-.029,0-.147-.022-.023,0-.153-.023-.016,0-.151-.023-.023,0-.141-.021-.033-.005-.14-.022-.031,0-.147-.023-.021,0-.154-.023-.017,0-.15-.023-.023,0-.157-.024-.011,0-.161-.025h-.01l-.166-.026h0l-.159-.025-.014,0-.167-.026h0l-.509-.08h0q-7.191-1.134-14.3-2.5h0l-.672-.129h-.006l-.165-.032h0l-.168-.032h0l-.165-.032-.009,0-.158-.031-.015,0-.5-.1h0l-.165-.032-.01,0-.664-.131-.017,0-.153-.03-.013,0-.157-.031-.009,0-.161-.032-.008,0-.158-.031-.016,0-.155-.031-.009,0-.161-.032h0l-.165-.033h-.005l-.159-.032-.019,0-.152-.031-.01,0-.158-.032-.01,0-.159-.032-.007,0-.158-.032-.016,0-.157-.032h0l-.165-.034-.008,0-.158-.032-.017,0-.147-.03-.03-.006-.144-.029-.016,0-.153-.031-.016,0-.153-.031-.015,0-.153-.032-.016,0-.155-.032-.01,0-.157-.032-.014,0-.153-.032-.017,0-.149-.031-.024,0-.146-.03-.02,0-.15-.031-.017,0-.152-.031-.015,0-.154-.032-.013,0-.158-.033H349.1l-.161-.034-.009,0-.156-.033-.016,0-.148-.031-.024,0-.148-.031-.015,0-.153-.032-.016,0-.151-.032-.017,0-.15-.032-.019,0-.153-.033-.009,0-.159-.034-.009,0-.157-.034-.013,0-.151-.032-.021,0-.15-.032-.013,0-.154-.033-.016,0-.153-.033-.013,0-.155-.034-.011,0-.161-.035h0l-.163-.035-.008,0-.156-.034-.015,0-.147-.032-.027-.006-.143-.031-.021,0-.151-.033-.014,0-.154-.034-.014,0-.152-.033-.017,0-.156-.034-.007,0-.163-.036h0l-.161-.036-.009,0-.154-.034-.016,0-.158-.035h0l-.162-.036h-.007l-.16-.036-.009,0-.157-.035-.012,0-.161-.036h0l-.162-.036-.009,0-.158-.035-.009,0-.153-.034-.018,0-.155-.035-.007,0-.163-.036h0l-.165-.037h0l-.162-.036-.008,0-.328-.074h-.006l-.165-.037h0l-.164-.037h-.006l-.665-.152h0l-.5-.115h0l-.159-.037-.013,0-.161-.037h0l-.162-.038h-.007l-.328-.076h-.006l-.66-.154-.008,0a439.975,439.975,0,0,1-159.022-73.023h0q-10.332-7.535-20.2-15.645h0l-.255-.209,0,0-.125-.1,0,0-.123-.1-.008-.006-.12-.1-.01-.008-.116-.1-.019-.016-.11-.091-.014-.012-.115-.095-.011-.009-.117-.1-.012-.01-.114-.095-.017-.015-.11-.091-.016-.014-.112-.093-.013-.01-.115-.1-.01-.009-.116-.1-.016-.013-.113-.093-.012-.01-.114-.094-.018-.015-.11-.092-.015-.013-.11-.092-.023-.019-.1-.086-.024-.02-.1-.086-.023-.02-.1-.086-.023-.019-.1-.085-.029-.024-.1-.084-.023-.019-.105-.088-.022-.018-.107-.089-.017-.014-.109-.091-.02-.016-.108-.091-.016-.013-.112-.094-.013-.011-.114-.1-.011-.01-.114-.1-.016-.014-.112-.094-.013-.011-.112-.094-.017-.014-.11-.093-.015-.012-.109-.092-.024-.02-.1-.086-.025-.021-.1-.086-.025-.022-.1-.085-.026-.022-.1-.083-.032-.027-.1-.081L155,780.05l-.1-.083-.029-.024-.1-.084-.024-.021-.1-.086-.025-.022-.1-.088-.02-.016-.106-.09-.022-.018-.107-.091-.016-.014-.108-.092-.022-.019-.106-.091L154,779.2l-.109-.092-.02-.017-.106-.09-.02-.017-.1-.089-.025-.021-.1-.085-.025-.022-.1-.085-.029-.024-.1-.084-.025-.022-.1-.086-.027-.023-.1-.083-.029-.025-.1-.083-.028-.024-.1-.086-.022-.018-.1-.089-.023-.02-.1-.088-.022-.019-.1-.089-.023-.019-.107-.092-.016-.014-.106-.091-.024-.02-.1-.088-.023-.019-.1-.087-.027-.023-.1-.085-.025-.022-.1-.085-.03-.025-.1-.084-.026-.023-.1-.085-.029-.025-.1-.083-.029-.025-.091-.079-.04-.034-.085-.074-.038-.033-.088-.076-.038-.033-.09-.079-.031-.027-.091-.079-.038-.033-.086-.075-.038-.032-.091-.079-.032-.028-.1-.084-.025-.022-.1-.084-.032-.028-.092-.08-.032-.028-.1-.083-.029-.025-.1-.085-.027-.023-.1-.084-.03-.026-.1-.085-.024-.021-.1-.088-.025-.022-.1-.087-.024-.022-.1-.083-.034-.029-.091-.08-.032-.028-.093-.082-.032-.028-.1-.085-.025-.022-.1-.084-.031-.028-.094-.083-.028-.025-.1-.086-.026-.023-.1-.091-.018-.016-.1-.09-.025-.022-.1-.088-.024-.021-.1-.087-.027-.024-.1-.088-.023-.02-.094-.083-.034-.031-.092-.081-.029-.026-.094-.083-.031-.028-.094-.083-.029-.026-.089-.079-.038-.034-.089-.079-.032-.029-.092-.082L146.87,773l-.1-.085-.025-.023-.1-.085-.031-.027-.1-.089-.021-.018-.1-.09-.024-.021-.108-.1-.012-.011-.1-.091-.027-.024-.1-.088-.022-.02-.1-.087-.029-.026-.1-.089-.021-.019-.1-.087-.028-.025-.1-.091-.019-.017-.1-.091-.024-.022-.107-.1-.014-.012-.1-.087-.031-.028-.1-.089-.021-.019-.1-.094-.018-.016-.226-.2-.021-.019-.1-.094-.017-.015-.114-.1-.008-.007-.237-.214-.01-.009-.233-.21-.013-.012-.113-.1-.009-.008-.1-.091-.025-.023-.1-.094-.018-.016-.095-.086-.031-.028-.1-.093-.018-.016-.093-.084-.032-.029-.107-.1-.012-.011-.108-.1-.015-.014-.229-.208-.016-.015-.113-.1-.008-.007-.109-.1-.014-.012-.236-.216-.008-.008-.24-.22,0,0-.24-.22-.005,0-.23-.211-.016-.014-.228-.209-.016-.015-.482-.444,0,0q-.731-.675-1.458-1.351l-.015-.014-.47-.438-.009-.009-.474-.443-.02-.018-.1-.1-.007-.007-.114-.107-.009-.008-.232-.217-.019-.018-.224-.21,0,0-.233-.22-.035-.033-.088-.083-.01-.009-.109-.1-.021-.02-.1-.1,0,0-.117-.11-.016-.015-.226-.213-.009-.009-.112-.106h0l-.115-.109-.036-.035-.086-.081-.027-.026-.092-.088-.029-.028-.092-.088-.028-.026-.088-.083-.05-.048-.072-.068-.043-.041-.076-.072-.043-.041-.079-.075-.046-.044-.069-.066-.061-.058-.062-.058-.054-.052-.064-.061-.052-.049-.071-.068-.046-.044-.07-.068-.054-.051-.068-.065-.047-.044-.073-.07-.042-.04-.079-.076-.044-.042-.072-.069-.055-.053-.066-.063-.05-.048-.069-.066-.051-.048-.07-.067-.054-.051-.062-.06-.058-.056-.064-.062-.052-.05-.066-.063-.053-.051-.068-.065-.055-.053-.06-.058-.063-.06-.059-.057-.054-.053-.065-.063-.049-.048-.071-.069-.051-.049-.065-.063-.054-.052-.069-.067-.044-.042-.075-.072-.042-.041-.078-.076-.045-.044-.068-.066-.059-.057-.061-.059-.055-.053-.064-.062-.051-.049-.07-.068-.051-.049-.065-.063-.057-.055-.062-.061-.056-.055-.061-.059-.055-.053-.067-.065-.053-.052-.061-.059-.062-.06-.059-.057-.056-.055-.062-.061-.052-.051-.07-.068-.048-.047-.066-.065-.055-.054-.066-.065-.048-.047-.07-.069-.045-.045-.075-.074-.044-.043-.07-.068-.053-.052-.066-.065-.05-.049-.067-.066-.051-.05-.068-.067-.053-.052-.062-.061-.058-.057-.062-.061-.053-.052-.065-.063-.052-.051-.068-.067L129.8,757l-.062-.062-.056-.055-.065-.065-.049-.048-.069-.068-.048-.047-.073-.072-.044-.044-.071-.07-.048-.048-.071-.071-.044-.044-.074-.074-.041-.041-.045-.045,18.32-18.45A413.407,413.407,0,0,0,440.372,858.505c229.383,0,416-186.617,416-416h26Z" stroke="#000" stroke-miterlimit="10" stroke-width="1"/>
  <path id="Path_8870" data-name="Path 8870" d="M49.71,621.743l.965-.476c3.431-1.692,7.273-.937,8.565,1.684l5.752,11.663c1.293,2.621-.447,6.128-3.878,7.82l-.965.476c-3.431,1.692-7.272.937-8.565-1.684l-5.752-11.663c-1.292-2.621.447-6.128,3.879-7.82Zm-1.281,20.744c1.924,3.9,7.645,5.026,12.754,2.507l.954-.47c5.109-2.519,7.7-7.742,5.775-11.645l-5.517-11.188c-1.924-3.9-7.645-5.027-12.754-2.507l-.954.47c-5.109,2.519-7.7,7.742-5.775,11.645l5.517,11.188Z" stroke="#000" stroke-miterlimit="10" stroke-width="1"/>
  <path id="Path_8871" data-name="Path 8871" d="M35.368,578.537a3.284,3.284,0,0,1,.223-2.525l4.581-9.286a2.481,2.481,0,0,0,.17-1.919l-.48-1.4a.413.413,0,0,0-.3-.258.719.719,0,0,0-.815.383l-4.137,8.384a.958.958,0,0,1-.778.485.648.648,0,0,1-.7-.37l-.488-1.417c-.883-2.566-3.88-3.768-6.971-2.8a8.117,8.117,0,0,0-4.2,3,4.2,4.2,0,0,0-.732,3.76l7.6,22.073a.118.118,0,0,0,.156.05l1.576-.542a1.438,1.438,0,0,0,1.106-1.662l-7.3-21.2c-.412-1.2.849-2.667,2.252-3.186a3.4,3.4,0,0,1,2.187-.1,1.977,1.977,0,0,1,1.345,1.212L36.983,592.5a1.438,1.438,0,0,0,1.894.629l9.9-3.407c.068-.023.11-.084.092-.135l-.33-.959A1.441,1.441,0,0,0,46.64,588l-6.253,2.153a.872.872,0,0,1-1.15-.382l-3.868-11.234Z" stroke="#000" stroke-miterlimit="10" stroke-width="1"/>
  <path id="Path_8872" data-name="Path 8872" d="M32.922,537.424c.07-.016.117-.073.105-.125l-.229-.989a1.439,1.439,0,0,0-1.819-.821L11.5,540.01c-.07.016-.117.074-.106.125l.23.989a1.439,1.439,0,0,0,1.819.821Z" stroke="#000" stroke-miterlimit="10" stroke-width="1"/>
  <path id="Path_8873" data-name="Path 8873" d="M27.123,507.858l-3.213-25.1a.1.1,0,0,0-.081-.086l-1.508.152a1.244,1.244,0,0,0-1.24,1.269l2.584,20.192L8.387,487.72c-1.1-1.194-1.673-1.815-1.914-2.165l-.056.027c-.081-.087-.158-.18-.235-.27a1.566,1.566,0,0,0-.937-.687,3.932,3.932,0,0,0-1.11.031l-.294.03A1.246,1.246,0,0,0,2.6,485.953l3.212,25.1a.1.1,0,0,0,.079.086l1.51-.152a1.245,1.245,0,0,0,1.241-1.268L6.031,489.324l17.808,19.428a1.576,1.576,0,0,0,1.3.447l.743-.075a1.246,1.246,0,0,0,1.242-1.268Z" stroke="#000" stroke-miterlimit="10" stroke-width="1"/>
  <path id="Path_8874" data-name="Path 8874" d="M10.824,430.9H11.9c3.826,0,6.937,2.376,6.937,5.3v13c0,2.922-3.112,5.3-6.937,5.3H10.824c-3.826,0-6.937-2.376-6.937-5.3v-13c0-2.922,3.111-5.3,6.937-5.3ZM.5,448.938c0,4.351,4.634,7.889,10.33,7.89h1.063c5.7,0,10.33-3.539,10.329-7.89V436.463c0-4.351-4.633-7.89-10.33-7.89H10.83c-5.7,0-10.33,3.539-10.33,7.889v12.475Z" stroke="#000" stroke-miterlimit="10" stroke-width="1"/>
  <path id="Path_8875" data-name="Path 8875" d="M5.695,374.262l-.123,1.007c-.081.663.559,1.288,1.427,1.394l15.87,1.949a1.035,1.035,0,0,1,.794.487.593.593,0,0,1-.134.741L3.315,398.166A2.144,2.144,0,0,0,2.6,399.5l-.182,1.488c-.082.663.559,1.291,1.427,1.4l19.848,2.437a.118.118,0,0,0,.14-.084l.124-1.006c.081-.663-.559-1.29-1.427-1.4L6.667,400.385a1.031,1.031,0,0,1-.792-.486.588.588,0,0,1-.073-.357.61.61,0,0,1,.208-.38l20.2-18.316a2.127,2.127,0,0,0,.7-1.264l.2-1.571c.081-.661-.559-1.286-1.427-1.393L5.836,374.181a.118.118,0,0,0-.142.081Z" stroke="#000" stroke-miterlimit="10" stroke-width="1"/>
  <path id="Path_8876" data-name="Path 8876" d="M83.011,205.7l-.877-.619c-3.12-2.2-4.29-5.929-2.609-8.312l7.481-10.6c1.681-2.383,5.585-2.531,8.705-.33l.877.619c3.12,2.2,4.29,5.929,2.609,8.312l-7.481,10.605c-1.681,2.383-5.586,2.531-8.706.33Zm18.8-8.772c2.5-3.548.76-9.1-3.885-12.376l-.867-.612c-4.646-3.277-10.46-3.057-12.963.492l-7.176,10.173c-2.5,3.548-.76,9.1,3.885,12.377l.867.611c4.645,3.277,10.46,3.057,12.963-.492l7.176-10.173Z" stroke="#000" stroke-miterlimit="10" stroke-width="1"/>
  <path id="Path_8877" data-name="Path 8877" d="M74.885,239.1l.656-1.151a1.584,1.584,0,0,0-.59-2.16L61.267,227.98a.963.963,0,0,1-.359-1.313l7.132-12.5A1.587,1.587,0,0,0,67.448,212L66,211.177a.13.13,0,0,0-.177.05L48.381,241.809a1.584,1.584,0,0,0,.592,2.159l1.448.826a.129.129,0,0,0,.176-.048l7.854-13.768a.962.962,0,0,1,1.311-.357l14.948,8.526a.13.13,0,0,0,.177-.05Z" stroke="#000" stroke-miterlimit="10" stroke-width="1"/>
  <path id="Path_8878" data-name="Path 8878" d="M41.588,256.84a.119.119,0,0,0-.159.048L41,257.9a1.459,1.459,0,0,0,.931,1.82l8.924,3.788c3.479,1.477,5.3,5.046,4.07,7.953l-5.5,12.948c-1.234,2.908-5.069,4.073-8.548,2.6l-10.25-4.351a.119.119,0,0,0-.16.05l-.428,1.01a1.46,1.46,0,0,0,.932,1.82l8.918,3.785c5.181,2.2,10.891.463,12.73-3.868l5.271-12.418c1.838-4.331-.879-9.644-6.06-11.843L41.588,256.84Z" stroke="#000" stroke-miterlimit="10" stroke-width="1"/>
  <path id="Path_8879" data-name="Path 8879" d="M34.834,339.9a2.337,2.337,0,0,0-.381-2.066L21.166,320.347a1.086,1.086,0,0,1-.157-.859.968.968,0,0,1,.6-.636L42.29,311.3a2.352,2.352,0,0,0,1.444-1.535l.8-2.707-24.017,8.858a4.4,4.4,0,0,0-1.864,6.312l15.475,20.366.706-2.693Z" stroke="#000" stroke-miterlimit="10" stroke-width="1"/>
  <path id="Path_8880" data-name="Path 8880" d="M100.234,686.141a.119.119,0,0,0,.054-.155l-.565-.848a1.434,1.434,0,0,0-1.993-.124l-5.5,3.705a.871.871,0,0,1-1.209-.074l-12.3-18.484a.884.884,0,0,1,.392-1.154l6.713-4.521a.12.12,0,0,0,.054-.156l-.564-.848a1.434,1.434,0,0,0-1.993-.124l-16.632,11.2a.119.119,0,0,0-.053.156l.564.847a1.435,1.435,0,0,0,1.993.123l5.5-3.705a.872.872,0,0,1,1.211.076l12.3,18.484a.882.882,0,0,1-.394,1.153L81.1,696.215a.121.121,0,0,0-.053.158l.563.846a1.434,1.434,0,0,0,1.993.124l16.632-11.2Z" stroke="#000" stroke-miterlimit="10" stroke-width="1"/>
  <path id="Path_8881" data-name="Path 8881" d="M128.266,756.184s-2.065-2.088-2.7-2.715c-.384-.406-.962-.964-1.666-1.7-.93-.971-2.055-2.187-2.834-2.964-2-2-5.68-6-5.68-6l-4.211-4.636-5.164-5.807q11.75-9.864,20.75-17.289c.1.058.088.065,4.349,4.885.967,1.094,1.762,1.992,2.858,3.188,1.011,1.1,1.768,1.9,2.539,2.718,2.047,2.163,4.4,4.646,5.159,5.44,7.936,8.266,12.356,12.3,12.356,12.3s-5.225,5.452-18.258,19.822l-.03.033"/>
</svg>
