<svg width="17" height="14" viewBox="0 0 17 14" fill="none" xmlns="http://www.w3.org/2000/svg">
<g clip-path="url(#clip0_1743_19769)">
<path d="M15.3 0H1.7C1.25061 0.00231308 0.820385 0.187708 0.50341 0.515647C0.186434 0.843585 0.00849444 1.28738 0.00850006 1.75L0 12.25C0.00134532 12.7137 0.180884 13.158 0.499405 13.4859C0.817925 13.8138 1.24955 13.9986 1.7 14H15.3C15.7505 13.9986 16.1821 13.8138 16.5006 13.4859C16.8191 13.158 16.9987 12.7137 17 12.25V1.75C16.9987 1.2863 16.8191 0.841982 16.5006 0.514093C16.1821 0.186204 15.7505 0.00138489 15.3 0ZM15.3 12.25H1.7V3.5L8.5 7.875L15.3 3.5V12.25ZM8.5 6.125L1.7 1.75H15.3L8.5 6.125Z" fill="#5D19EE"/>
</g>
<defs>
<clipPath id="clip0_1743_19769">
<rect width="17" height="14" fill="white"/>
</clipPath>
</defs>
</svg>
