<svg width="19" height="19" viewBox="0 0 19 19" fill="none" xmlns="http://www.w3.org/2000/svg">
<path fill-rule="evenodd" clip-rule="evenodd" d="M7.68914 0.431275H10.9927C12.0824 0.431265 12.9613 0.431257 13.6731 0.489093C14.4059 0.548642 15.0496 0.674455 15.6451 0.976242C16.5911 1.45561 17.3602 2.22051 17.8421 3.16132C18.1456 3.75361 18.2721 4.3938 18.332 5.12265C18.3901 5.83052 18.3901 6.70467 18.3901 7.78844V11.0741C18.3901 12.1579 18.3901 13.032 18.332 13.7399C18.2721 14.4687 18.1456 15.1089 17.8421 15.7012C17.3602 16.642 16.5911 17.4069 15.6451 17.8863C15.0496 18.1881 14.4059 18.3139 13.6731 18.3735C12.9613 18.4313 12.0824 18.4313 10.9927 18.4313H7.68911C6.59942 18.4313 5.7205 18.4313 5.00876 18.3735C4.27592 18.3139 3.63224 18.1881 3.03671 17.8863C2.09076 17.4069 1.32168 16.642 0.839693 15.7012C0.536257 15.1089 0.409757 14.4687 0.349882 13.7399C0.29173 13.032 0.291738 12.1579 0.291748 11.0741V7.78847C0.291738 6.70468 0.29173 5.83053 0.349882 5.12265C0.409757 4.3938 0.536257 3.75361 0.839693 3.16132C1.32168 2.22051 2.09076 1.45561 3.03671 0.976242C3.63224 0.674455 4.27592 0.548642 5.00876 0.489093C5.7205 0.431257 6.59943 0.431265 7.68914 0.431275ZM5.17251 2.48245C4.56404 2.53189 4.21445 2.62407 3.94965 2.75826C3.38208 3.04588 2.92063 3.50482 2.63144 4.0693C2.49652 4.33266 2.40385 4.68035 2.35413 5.28551C2.30346 5.90236 2.30268 6.69467 2.30268 7.83127V11.0313C2.30268 12.1679 2.30346 12.9602 2.35413 13.577C2.40385 14.1822 2.49652 14.5299 2.63144 14.7932C2.92063 15.3577 3.38208 15.8167 3.94965 16.1043C4.21445 16.2385 4.56404 16.3307 5.17251 16.3801C5.79272 16.4305 6.58936 16.4313 7.73218 16.4313H10.9497C12.0925 16.4313 12.8891 16.4305 13.5093 16.3801C14.1178 16.3307 14.4674 16.2385 14.7322 16.1043C15.2998 15.8167 15.7612 15.3577 16.0504 14.7932C16.1853 14.5299 16.278 14.1822 16.3277 13.577C16.3784 12.9602 16.3792 12.1679 16.3792 11.0313V7.83127C16.3792 6.69467 16.3784 5.90236 16.3277 5.28551C16.278 4.68035 16.1853 4.33266 16.0504 4.0693C15.7612 3.50482 15.2998 3.04588 14.7322 2.75826C14.4674 2.62407 14.1178 2.53189 13.5093 2.48245C12.8891 2.43205 12.0925 2.43127 10.9497 2.43127H7.73218C6.58936 2.43127 5.79272 2.43205 5.17251 2.48245Z" fill="#BABDCC"/>
</svg>
