<svg width="21" height="19" viewBox="0 0 21 19" fill="none" xmlns="http://www.w3.org/2000/svg">
<path d="M18.7583 2.5229C18.3061 2.05615 17.7693 1.68589 17.1784 1.43328C16.5875 1.18066 15.9542 1.05064 15.3146 1.05064C14.675 1.05064 14.0417 1.18066 13.4508 1.43328C12.8599 1.68589 12.3231 2.05615 11.8709 2.5229L10.9325 3.49111L9.99412 2.5229C9.54253 2.05327 9.0055 1.68027 8.41387 1.42531C7.82223 1.17034 7.18761 1.03842 6.54644 1.03712C5.90527 1.03582 5.27016 1.16516 4.67755 1.41772C4.08495 1.67029 3.54651 2.0411 3.09313 2.50889C2.63975 2.97668 2.28036 3.53223 2.03558 4.14368C1.79079 4.75512 1.66544 5.41042 1.6667 6.07197C1.66796 6.73352 1.79581 7.3883 2.04293 7.99875C2.29004 8.60919 2.65155 9.16329 3.1067 9.62923L4.04509 10.5974L10.9325 17.7038L17.8199 10.5974L18.7583 9.62923C19.2107 9.1627 19.5695 8.60878 19.8144 7.99912C20.0592 7.38945 20.1852 6.73599 20.1852 6.07606C20.1852 5.41614 20.0592 4.76267 19.8144 4.15301C19.5695 3.54335 19.2107 2.98943 18.7583 2.5229Z" stroke="white" stroke-width="1.5" stroke-linecap="round" stroke-linejoin="round"/>
</svg>
