<svg width="18" height="18" viewBox="0 0 18 18" fill="none" xmlns="http://www.w3.org/2000/svg">
<path d="M4.12037 13.7266C5.44849 15.0286 7.02401 15.6797 8.84693 15.6797C10.6698 15.6797 12.2323 15.0286 13.5344 13.7266C14.8626 12.3984 15.5266 10.8229 15.5266 9C15.5266 7.17708 14.8626 5.61458 13.5344 4.3125C12.2323 2.98438 10.6698 2.32031 8.84693 2.32031C7.02401 2.32031 5.44849 2.98438 4.12037 4.3125C2.81829 5.61458 2.16724 7.17708 2.16724 9C2.16724 10.8229 2.81829 12.3984 4.12037 13.7266ZM2.94849 3.14062C4.58912 1.5 6.55526 0.679688 8.84693 0.679688C11.1386 0.679688 13.0917 1.5 14.7063 3.14062C16.3469 4.75521 17.1672 6.70833 17.1672 9C17.1672 11.2917 16.3469 13.2578 14.7063 14.8984C13.0917 16.513 11.1386 17.3203 8.84693 17.3203C6.55526 17.3203 4.58912 16.513 2.94849 14.8984C1.33391 13.2578 0.526619 11.2917 0.526619 9C0.526619 6.70833 1.33391 4.75521 2.94849 3.14062ZM9.66724 4.82031V8.17969H13.0266V9.82031H9.66724V13.1797H8.02662V9.82031H4.66724V8.17969H8.02662V4.82031H9.66724Z" fill="#7963F0"/>
</svg>
