<svg width="10" height="13" viewBox="0 0 10 13" fill="none" xmlns="http://www.w3.org/2000/svg">
<path fill-rule="evenodd" clip-rule="evenodd" d="M4.28048 12.7882C4.95133 13.0597 5.70869 13.0705 6.38689 12.8188C7.2029 12.516 7.84637 11.858 8.12976 11.0327H7.58525C7.31737 11.6577 6.79249 12.1464 6.14359 12.3657C5.62387 12.5412 5.05205 12.5331 4.53748 12.3426C3.9186 12.1133 3.41979 11.6367 3.16091 11.0327H2.61646C2.89064 11.8312 3.502 12.4731 4.28048 12.7882ZM6.19682 7.28982C5.69331 7.1416 5.15209 7.13274 4.64399 7.26367C3.79686 7.48204 3.09903 8.07192 2.73418 8.84902C2.50757 8.79325 2.32897 8.78638 2.1983 9.00761C2.06619 9.22949 2.01689 9.48157 1.9527 9.73333L2.0753 9.90522C2.10666 9.76598 2.2995 9.119 2.41303 9.06457C2.52272 9.01213 3.52416 9.345 3.58641 9.48211C3.60988 9.53398 3.59997 9.59915 3.58326 9.66135C3.56275 9.74805 3.5353 9.84385 3.50276 9.90837C3.45451 10.0037 3.41613 10.0318 3.31791 10.0583C3.25712 10.4143 3.1153 10.8456 2.86066 10.8355C2.65878 10.8276 2.32084 10.8573 2.13588 10.7502C1.9791 10.6596 1.2263 10.0252 1.11031 9.88932C0.86264 9.6071 0.957837 9.09712 1.04948 8.72714L1.64785 6.3757C1.69939 6.06952 1.88247 5.82942 2.17208 5.72059L4.04268 5.21828L4.17415 4.87379C4.32497 4.97879 4.48146 5.06757 4.64633 5.14833C5.10135 5.29187 5.64486 5.29187 6.09991 5.14833C6.26475 5.06757 6.42124 4.97879 6.57198 4.87379L6.70345 5.21828L8.57408 5.72059C8.86378 5.82942 9.04683 6.06952 9.0983 6.3757L9.69669 8.72714C9.78844 9.09712 9.88362 9.6071 9.63586 9.88932C9.52003 10.0252 8.76712 10.6596 8.61028 10.7502C8.4253 10.8573 8.08743 10.8276 7.88555 10.8355C7.63082 10.8456 7.48906 10.4143 7.42829 10.0583C7.3301 10.0318 7.29169 10.0037 7.24348 9.90837C7.21086 9.84385 7.18345 9.74805 7.16294 9.66135C7.1463 9.59915 7.13636 9.53398 7.15976 9.48211C7.22197 9.345 8.22355 9.01213 8.33317 9.06457C8.44678 9.119 8.63963 9.76598 8.67093 9.90522L8.79351 9.73333C8.72925 9.48157 8.68 9.22949 8.54788 9.00761C8.41724 8.78638 8.23874 8.79325 8.01202 8.84902C7.66084 8.10103 7.00117 7.52642 6.19682 7.28982ZM5.59701 11.6272C6.10822 11.5512 6.53582 11.2189 6.74504 10.7651L7.3841 10.7658C7.299 10.6485 7.23227 10.5011 7.18417 10.3428H6.28085C6.18898 10.668 5.92703 10.9219 5.59701 11.0022V11.6272ZM7.52431 9.00736C7.23824 8.43799 6.73299 7.99785 6.11925 7.79784C5.65198 7.64559 5.13722 7.64009 4.66728 7.78439C4.03729 7.97788 3.51502 8.42551 3.22193 9.00736C3.38872 9.06276 3.62826 9.14161 3.76554 9.23321C3.8868 9.28909 3.89752 9.41231 3.86706 9.52852C3.83588 9.66063 3.80981 9.79459 3.77205 9.92486H4.44359C4.51994 9.48056 4.90706 9.14251 5.37307 9.14251C5.83914 9.14251 6.2263 9.48056 6.30261 9.92486H6.97415C6.93636 9.79459 6.91032 9.66063 6.87911 9.52852C6.84872 9.41231 6.8594 9.28909 6.98066 9.23321C7.11798 9.14161 7.35752 9.06276 7.52431 9.00736ZM5.1492 11.6272C4.63802 11.5512 4.21039 11.2189 4.00117 10.7651L3.36214 10.7658C3.44721 10.6485 3.51397 10.5011 3.56203 10.3428H4.46533C4.55726 10.668 4.81921 10.9219 5.1492 11.0022V11.6272ZM6.97748 2.15496C6.01437 2.12061 4.73191 2.12394 3.76868 2.15496C3.77346 2.44096 3.79025 2.71427 3.80619 2.99907C3.81856 3.21646 4.14908 3.35312 4.33964 3.41413C4.96262 3.61356 5.78356 3.61356 6.4066 3.41413C6.59712 3.35312 6.92768 3.21646 6.93998 2.99907C6.95596 2.71427 6.97278 2.44096 6.97748 2.15496ZM3.60185 3.00943C3.6552 4.03166 7.09104 4.03166 7.14439 3.00943C7.16258 2.78427 7.17524 2.36355 7.17958 2.13922C7.1811 1.97303 7.07741 1.94294 6.94901 1.93942C5.93166 1.9109 4.81458 1.9109 3.79723 1.93942C3.66879 1.94294 3.56511 1.97303 3.56659 2.13922C3.57093 2.36355 3.58362 2.78427 3.60185 3.00943ZM4.72594 4.94923C4.43021 4.80413 4.16735 4.63429 3.88207 4.35108C3.61581 4.04232 3.57867 3.63837 3.45115 3.17026C3.39277 2.57947 3.35208 1.90692 3.42865 1.36826C3.55842 0.455266 4.42023 -0.000720978 5.37307 -7.24792e-05C6.32595 -0.000720978 7.18779 0.455266 7.31755 1.36826C7.39412 1.90692 7.35343 2.57947 7.29513 3.17026C7.16753 3.63837 7.13039 4.04232 6.8641 4.35108C6.57885 4.63429 6.31599 4.80413 6.02026 4.94923C5.62786 5.0727 5.11835 5.0727 4.72594 4.94923Z" fill="#231F20"/>
</svg>
