<svg xmlns="http://www.w3.org/2000/svg" xmlns:xlink="http://www.w3.org/1999/xlink" width="1080" height="1080" viewBox="0 0 1080 1080">
  <defs>
    <clipPath id="clip-Original_Logo_Black">
      <rect width="1080" height="1080"/>
    </clipPath>
  </defs>
  <g id="Original_Logo_Black" data-name="Original Logo Black" clip-path="url(#clip-Original_Logo_Black)">
    <rect width="1080" height="1080" fill="#fff"/>
    <rect id="Rectangle_158" data-name="Rectangle 158" width="1080" height="1080"/>
    <path id="Path_2574" data-name="Path 2574" d="M0,1080Z"/>
    <g id="Horizon_auto_Logo_round_only_09-28-2022" transform="translate(96.889 97.497)">
      <path id="Path_2581" data-name="Path 2581" d="M473.884,622.64c0,.554.334,1.009.757,1.009h7.82c5.145,0,9.334-5.484,9.334-12.223V560.462c0-4.087,2.536-7.422,5.656-7.422H667.857c3.119,0,5.668,3.336,5.668,7.422V622.64c0,.554.336,1.009.759,1.009H682.1c5.149,0,9.073-8.8,9.073-15.536l.263-150.749a.907.907,0,0,0-.771-1.008H682.86c-5.144,0-9.335,5.484-9.335,12.223v50.963c0,4.086-2.549,7.422-5.668,7.422H497.451c-3.12,0-5.656-3.336-5.656-7.422V457.362a.918.918,0,0,0-.769-1.008h-7.808c-5.146,0-9.334,5.484-9.334,12.223Z" transform="translate(-276.888 -97.5)" fill="#fff" stroke="#fff" stroke-miterlimit="10" stroke-width="1"/>
      <path id="Path_2582" data-name="Path 2582" d="M473.884,622.64c0,.554.334,1.009.757,1.009h7.82c5.145,0,9.334-5.484,9.334-12.223V560.462c0-4.087,2.536-7.422,5.656-7.422H667.857c3.119,0,5.668,3.336,5.668,7.422V622.64c0,.554.336,1.009.759,1.009H682.1c5.149,0,9.073-8.8,9.073-15.536l.263-150.749a.907.907,0,0,0-.771-1.008H682.86c-5.144,0-9.335,5.484-9.335,12.223v50.963c0,4.086-2.549,7.422-5.668,7.422H497.451c-3.12,0-5.656-3.336-5.656-7.422V457.362a.918.918,0,0,0-.769-1.008h-7.808c-5.146,0-9.334,5.484-9.334,12.223Z" transform="translate(-276.888 -97.5)" fill="#fff" stroke="#fff" stroke-width="4"/>
      <path id="Path_2583" data-name="Path 2583" d="M708.6,623.648c5.586,0,9.594-2.687,12.929-7.187l99.146-133.84a8.278,8.278,0,0,1,5.925-2.978,7.344,7.344,0,0,1,5.908,2.978l99.129,133.84a17.818,17.818,0,0,0,14.263,7.187h21.434L851.581,468.423c-4.809-6.476-15.315-11.171-25-11.171s-20.187,4.695-24.98,11.171L691.615,623.606Z" transform="translate(-276.888 -97.5)" fill="#fff" stroke="#fff" stroke-miterlimit="10" stroke-width="1"/>
      <path id="Path_2584" data-name="Path 2584" d="M708.6,623.648c5.586,0,9.594-2.687,12.929-7.187l99.146-133.84a8.278,8.278,0,0,1,5.925-2.978,7.344,7.344,0,0,1,5.908,2.978l99.129,133.84a17.818,17.818,0,0,0,14.263,7.187h21.434L851.581,468.423c-4.809-6.476-15.315-11.171-25-11.171s-20.187,4.695-24.98,11.171L691.615,623.606Z" transform="translate(-276.888 -97.5)" fill="#fff" stroke="#fff" stroke-width="4"/>
      <path id="Path_2585" data-name="Path 2585" d="M1162.1,518.515l-25.97,1.243C1125.506,297.837,942.99,124,720.612,124A417.093,417.093,0,0,0,413.486,259.407L394.3,241.865A441.338,441.338,0,0,1,640.331,105.273h0q1.359-.249,2.719-.49h0l.68-.12h0c.908-.159,1.813-.315,2.723-.469h.006l.167-.028h0l.166-.028.01,0,.164-.028h0q1.109-.186,2.219-.366h0l.681-.11h.006c.684-.11,1.363-.218,2.048-.325h0l.167-.026h.006l.159-.024.017,0,.157-.024.015,0,.151-.023.027,0,.149-.023.021,0,.15-.023.025,0,.148-.023.024,0,.147-.022.027,0,.15-.023h.009c.572-.087,1.136-.172,1.709-.257h0l.158-.023.022,0,.148-.022.025,0,.146-.022.031,0,.141-.021.035,0,.137-.02.04-.006.137-.02.029,0,.148-.022.018,0,.157-.023.01,0c.515-.075,1.018-.147,1.535-.22h.008l.159-.023.016,0,.146-.021.033,0,.139-.02.036,0,.135-.019.041-.006.139-.019.031,0,.144-.02.029,0,.148-.02.022,0,.153-.021.016,0c.574-.079,1.127-.155,1.7-.232l.013,0,.156-.021.018,0,.146-.02.033,0,.141-.019.034,0,.138-.019.041-.005.134-.017.039-.005.138-.018.035,0,.143-.019.025,0,.151-.02.021,0,.153-.02.018,0,.156-.021.014,0,1.18-.152.021,0,.14-.018.037,0,.136-.017.039-.005.136-.017.038,0,.136-.017.041-.005.131-.016.047-.006.128-.016.048-.006.129-.016.044-.005.133-.017.044-.005.128-.016.05-.006.131-.016.032,0,.146-.018.017,0,1.013-.123.014,0,.149-.018.026,0,.138-.017.041,0,.13-.015.047-.006.126-.015.052-.006.125-.015.05-.006.128-.015.048-.006.128-.015.048-.006.128-.015.05-.006.129-.015.043-.005.134-.016.042,0,.135-.016.035,0,.142-.017.027,0,.151-.018h0l.853-.1.016,0,.141-.016.037,0,.134-.015.043,0,.13-.015.048-.005.123-.014.055-.006.122-.014.057-.006.119-.013.057-.006.124-.014.051-.006.124-.014.054-.006.124-.014.052-.006.124-.014.051-.005.128-.014.045-.005.133-.014.035,0,1.011-.109h0l.152-.016.026,0,.136-.014.044,0,.126-.013.053-.006.119-.012.06-.006.118-.012.057-.006.121-.013.058-.006.118-.012.06-.006.115-.012.066-.007.113-.011.062-.006.117-.012.062-.006.116-.012.062-.006.113-.012.073-.007.106-.011.055-.005.127-.013h0l.507-.051.016,0,.13-.013.049,0,.114-.011.068-.007.1-.01.077-.008.109-.011.067-.006.111-.011.067-.006.117-.011.06-.006.113-.011.068-.007.112-.011.065-.006.112-.011.066-.006.114-.011.066-.006.107-.01.076-.007.107-.01.061-.006.117-.011.052-.005.131-.012h.015l.159-.015.023,0,.634-.059.05,0,.118-.011.06-.005.118-.011.06-.005.119-.011.059-.005.113-.01.069-.006.108-.01.071-.006.106-.01.076-.007.1-.009.08-.007.1-.008.083-.007.1-.009.072-.006.11-.01.065-.005.117-.01.054,0,.122-.011.061-.005.119-.01.051,0,.128-.011.034,0,.625-.054.048,0,.124-.01.054,0,.121-.01.059-.005.12-.01.059,0,.115-.01.065-.005.113-.01.066-.005.109-.009.074-.006.108-.009.068-.005.109-.009.073-.006.11-.009.063-.005.116-.009.059,0,.123-.01.048,0,.129-.01.052,0,.128-.01.045,0,.131-.01.042,0,.487-.038h0l.124-.01.058,0,.115-.009.064,0,.107-.008.076-.006.1-.007.086-.007.088-.007.1-.007.088-.007.089-.007.094-.007.088-.007.093-.007.086-.007.092-.007.091-.007.092-.007.083-.006.1-.007.081-.006.1-.007.088-.007.09-.006.1-.007.085-.006.085-.006.1-.007.064,0,.426-.03.044,0,.124-.009.055,0,.113-.008.069,0,.1-.007.085-.006.1-.007.074-.005.106-.007.075-.005.106-.007.074-.005.1-.007.078-.005.1-.007.074-.005.1-.007.074,0,.109-.007.074,0,.1-.007.082-.005.1-.007.073,0,.106-.007.075-.005.108-.007.071,0,.107-.007.074,0,.4-.026.061,0,.094-.006.09-.006.1-.006.082-.005.1-.006.08-.005.1-.006.081-.005.1-.006.083-.005.1-.006.079,0,.1-.006.079,0,.1-.006.074,0,.1-.006.086-.005.092-.005.089-.005.092-.005.091-.005.091-.005.086-.005.1-.006.086-.005.094-.006.086,0,.1-.006.09-.005.091-.005.1-.006.163-.009.094-.005.083,0,.1-.006.087,0,.093,0,.092-.005.089-.005.1-.005.083,0,.1-.005.084,0,.1-.005.08,0,.1-.005.082,0,.1-.006.079,0,.1-.005.085,0,.1-.005.082,0,.1,0,.085,0,.1-.005.088,0,.089,0,.1,0,.082,0,.114-.006.065,0,.117-.006.069,0,.18-.009h.029l.152-.008.072,0,.111-.006.085,0,.093,0,.1,0,.085,0,.092,0,.091,0,.087,0,.1,0,.088-.007.09,0,.1,0,.088,0,.093,0,.089,0,.093,0,.092,0,.091,0,.087,0,.1,0,.09,0,.091,0,.091,0,.089,0,.1,0,.084,0,.094,0,.089,0,.1,0,.082,0,.181-.008.035,0,.146-.006.087,0,.094,0,.091,0,.093,0,.08,0,.1,0,.086,0,.1,0,.089,0,.091,0,.094,0,.09,0,.087,0,.1,0,.085,0,.1,0,.085,0,.1,0,.084,0,.1,0,.076,0,.109,0,.076,0,.108,0,.074,0,.106,0,.08,0,.115,0,.064,0,.13,0,.055,0,.364-.013.063,0,.122,0,.069,0,.111,0,.084,0,.1,0,.09,0,.09,0,.093,0,.092,0,.088,0,.1,0,.087,0,.1,0,.088,0,.092,0,.09,0,.1,0,.083,0,.1,0,.089,0,.093,0,.09,0,.091,0,.093,0,.093,0,.09,0,.093,0,.091,0,.1,0,.079,0,.172-.005h.045l.147,0,.067,0,.116,0,.085,0,.1,0,.092,0,.091,0,.092,0,.093,0,.089,0,.094,0,.089,0,.1,0,.079,0,.105,0,.081,0,.1,0,.082,0,.1,0,.086,0,.1,0,.083,0,.1,0,.087,0,.1,0,.087,0,.1,0,.089,0,.1,0,.076,0,.109,0,.076,0,.152,0,.075,0,.135,0,.076,0,.109,0,.083,0,.1,0,.1,0,.087,0,.091,0,.094,0,.084,0,.1,0,.081,0,.1,0h.085l.1,0,.085,0,.1,0,.085,0,.1,0h.084l.1,0,.087,0,.1,0,.084,0,.1,0h.078l.11,0h.075l.108,0h.077l.119,0h.063l.366-.005h.078l.1,0h.26l.11,0H725.8l.123,0h.23l.128,0h.05l.351,0h.052l.127,0h.055l.118,0h.078l.1,0h.072l.1,0h.073l.1,0h.076l.1,0h.083l.093,0h.079l.1,0h.077l.1,0,.077,0,.1,0h.076l.1,0h.073l.1,0h.073l.1,0h.078l.095,0,.084,0,.092,0,.083,0,.095,0,.078,0,.1,0,.082,0,.09,0,.085,0,.095,0,.079,0,.1,0,.077,0,.1,0,.073,0,.1,0,.079,0,.1,0,.075,0,.108,0,.065,0,.111,0,.067,0,.1,0,.07,0,.11,0,.066,0,.119,0,.055,0,.123,0h.055l.1,0,.078,0,.1,0,.071,0,.35.009.073,0,.1,0,.078,0,.1,0,.07,0,.106,0,.08,0,.093,0,.09,0,.084,0,.09,0,.087,0,.077,0,.1,0,.072,0,.1,0,.073,0,.1,0,.076,0,.1,0,.074,0,.1,0,.076,0,.1,0,.078,0,.1,0,.082,0,.094,0,.078,0,.1,0,.083,0,.091,0,.083,0,.09,0,.087,0,.09,0,.081,0,.1,0,.083,0,.086,0,.089,0,.084,0,.093,0,.083,0,.088,0,.09,0,.085,0,.091,0,.082,0,.093,0,.083,0,.1,0,.076,0,.1,0,.083,0,.08,0,.094,0,.076,0,.1,0,.073,0,.1,0,.08,0,.206.008.061,0,.093,0,.08,0,.081,0,.1,0,.07,0,.1,0,.085,0,.089,0,.091,0,.081,0,.088,0,.091,0,.075,0,.1,0,.075,0,.1,0,.075,0,.1,0,.079,0,.1,0,.076,0,.1,0,.081,0,.094,0,.082,0,.09,0,.085,0,.091,0,.083,0,.088,0,.088,0,.087,0,.087,0,.085,0,.088,0,.09,0,.084,0,.087,0,.087,0,.088,0,.088,0,.083,0,.091,0,.088,0,.085,0,.092,0,.081,0,.1,0,.076,0,.1,0,.077,0,.1,0,.08,0,.086,0,.088,0,.083,0,.092,0,.075,0,.1,0,.076,0,.1.005.082,0,.091,0,.109.006.065,0,.174.009h.029l.144.008.088,0,.084,0,.1.005.076,0,.087,0,.088,0,.081,0,.095.005.074,0,.1.005.077,0,.1.005.071,0,.1.006.075,0,.1.005.08,0,.092,0,.086.005.089,0,.081,0,.091.005.089.005.083,0,.087,0,.088.005.088.005.085.005.084,0,.091.005.087.005.083,0,.089.005.087,0,.087.005.089.005.083.005.091.005.085.005.091.005.079,0,.1.006.08,0,.1.006.073,0,.1.006.076,0,.093.006.079.005.095.006.08,0,.095.006.078,0,.084.005.095.006.07,0,.1.006.092.006.082.005.118.008.053,0,.129.008.046,0,.173.011.036,0,.135.009.069,0,.107.007.068,0,.1.007.082.005.095.006.069,0,.1.007.065,0,.111.008.065,0,.1.007.081.005.094.007.08.005.09.006.082.006.095.007.079.005.089.006.086.006.091.006.076.005.1.007.073.005.1.007.076.005.092.007.083.006.094.007.078.005.094.007.078.005.1.007.076.005.093.007.082.006.1.007.075.005.1.008.069.005.107.008.068.005.1.007.078.006.095.007.078.006.1.007.076.006.1.008.076.006.087.007.088.007.091.007.078.006.114.009.058,0,.114.009.062,0,.119.009.052,0,.52.041.054,0,.118.009.059,0,.117.01.036,0,.139.011.038,0,.134.011.05,0,.122.01.063.005.109.009.065.005.107.009.071.006.1.008.069.006.1.009.071.006.107.009.059,0,.115.01.061.005.112.01.062.005.11.009.064.005.111.01.061.005.11.009.067.006.107.009.063.005.108.009.069.006.106.009.063.005.109.009.069.006.1.009.07.006.1.009.071.006.109.01.059,0,.114.01.061.005.113.01.059.005.108.01.068.006.111.01.058.005.125.011.048,0,.136.012.036,0,.128.011.048,0,.692.063.018,0,.329.03.027,0,.146.014.036,0,.133.012.052.005.125.011.043,0,.125.012.061.006.113.011.06.006.108.01.068.007.11.01.057.005.115.011.06.006.113.011.059.006.112.011.062.006.114.011.056.005.113.011.062.006.115.011.054.005.115.011.06.006.113.011.061.006.109.011.065.006.108.011.064.006.109.011.063.006.109.011.064.006.1.01.071.007.1.01.076.008.1.01.072.007.117.012.051.005.119.012.055.005.119.012.052.005.125.013.047,0,.161.017h.009l.693.072.028,0,.143.015.043,0,.13.014.043,0,.13.014.045,0,.125.013.056.006.115.012.059.007.114.012.055.006.115.012.061.007.113.012.054.006.117.013.059.006.11.012.065.007.106.012.068.007.1.011.065.007.109.012.063.007.11.012.058.006.113.013.062.007.109.012.063.007.11.012.061.007.114.013.056.006.114.013.06.007.11.012.063.007.106.012.068.008.107.012.062.007.108.012.067.008.108.012.059.007.119.014.052.006.127.015.043,0,.126.015.048.006.153.018.015,0,.865.1h.008l.163.019.026,0,.142.017.055.006.117.014.052.006.12.014.047.006.126.015.05.006.117.014.062.008.113.014.051.006.12.015.051.006.122.015.052.006.115.014.06.007.113.014.055.007.118.015.05.006.123.015.05.006.115.014.062.008.11.014.06.007.112.014.057.007.114.014.059.008.11.014.06.008.114.014.056.007.118.015.051.007.118.015.056.007.106.014.068.008.1.013.067.009.109.014.06.008.118.015.052.007.124.016.046.006.147.019.021,0,1.2.157.024,0,.146.019.037.005.133.018.043.005.128.017.047.006.123.016.053.007.118.016.051.007.119.016.057.008.114.016.053.007.119.016.051.007.122.016.044.006.129.017.043.006.126.017.047.006.12.017.057.008.113.016.055.008.117.016.054.008.119.016.05.007.119.017.055.008.117.016.05.007.12.017.054.008.114.016.057.008.11.015.063.009.114.016.052.007.121.017.05.007.128.018.04.005.129.018.043.006.15.021.015,0,.154.022.019,0,.162.023h.008l.165.023h.007l.686.1.011,0,.161.023h0l.164.024.03,0,.14.02.037.005.13.019.05.008.122.018.042.006.128.019.044.006.128.019.041.006.129.019.04.006.134.02.034,0,.133.02.044.006.125.019.05.007.115.017.06.009.112.017.057.008.111.017.06.009.111.017.058.008.112.017.057.008.115.018.056.008.111.017.06.009.109.017.062.01.105.016.063.01.111.017.058.009.112.017.056.008.123.019.044.007.13.02.038.006.141.022.028,0,.139.022.033.005.153.024.015,0,.167.026h0l1.026.161h.005l.165.026.01,0,.157.025.028,0,.142.023.028,0,.142.023.032.005.138.022.029,0,.141.023.032,0,.137.022.034.005.133.021.043.007.126.021.042.007.125.02.052.009.117.019.049.008.122.02.049.008.121.02.046.008.12.02.054.009.116.019.052.009.115.019.057.009.116.019.049.008.118.02.055.009.12.02.045.007.127.021.043.007.141.023.022,0,.143.024.031.005.143.024.023,0,.15.025.02,0,.327.055.012,0,1.359.232.02,0,.153.026h0l.166.029.011,0,.16.028h.008l.155.027.034.006.138.024.029.005.136.024.039.007.131.023.039.007.125.022.05.009.122.022.041.007.128.022.04.007.128.022.044.008.119.021.053.009.117.021.053.01.114.02.054.01.119.021.049.009.114.02.059.01.111.02.055.01.119.021.046.008.129.023.039.007.126.023.043.008.136.025.029.005.142.026.026,0,.148.027.021,0,.147.026.023,0c.68.123,1.352.247,2.03.374l.014,0,.156.029.012,0,.152.029.03.005.138.026.03.006.136.026.036.007.135.025.029.005.139.026.033.006.134.025.034.006.133.025.036.007.138.027.024,0,.141.027.033.006.137.026.03.006.135.026.036.007.144.027.017,0,.151.029.019,0,.157.03.009,0,.152.029.021,0,.156.03.009,0,.162.031.007,0c.79.153,1.576.308,2.364.465h.005l.164.033h0l.166.033h.006l.162.032h.007l.156.032.023,0,.147.03.02,0,.145.029.028.006.141.029.027.005.136.028.035.007.137.028.027.006.137.028.036.007.13.027.039.008.128.026.04.008.131.027.035.007.131.027.037.008.133.028.032.007.137.028.03.006.142.029.024.005.144.03.023,0,.149.031.018,0,.154.032.013,0,.166.035h0q1.178.245,2.354.5h0l.162.035.013,0,.154.033.016,0,.149.032.023.005.146.031.02,0,.146.031.024.005.143.031.023,0,.144.031.024.005.143.031.023,0,.141.031.029.006.139.031.026.006.141.031.025.005.144.032.022,0,.143.031.026.006.145.032.019,0,.153.034.013,0,.329.072h0q1.174.26,2.343.525h0l.164.037h0l.161.037.019,0,.148.034.016,0,.149.034.02,0,.148.034.018,0,.146.034.024.005.143.033.022,0,.145.033.02,0,.145.034.023.005.136.032.036.008.133.031.03.007.136.031.029.007.141.032.024.006.137.032.032.008.139.032.024.005.152.035.01,0,.161.037h.005l.161.037.006,0q1.335.313,2.665.633h0l.164.039h0l.163.039h0l.162.039.008,0,.157.038.013,0,.156.037.007,0,.158.038.01,0,.154.037.015,0,.145.036.026.006.144.035.016,0,.149.036.017,0,.148.036.017,0,.148.036.017,0,.159.039h0l.163.04h.005l.329.081h0q1.495.37,2.985.749h0l.328.084.006,0,.162.041.159.041.017,0,.149.038.015,0,.146.037.023.006.147.038.013,0,.149.038.018,0,.149.038.014,0,.152.039.012,0,.159.041h0l.162.042h0l.163.043h0l.164.043h0q1.819.474,3.63.962c.013,0-.012,0,0,0l.163.044h0l.159.043.012,0,.156.042h0l.161.044h0l.328.089h0l.328.089h0c1.426.389,2.844.785,4.264,1.188l.011,0,.156.045h0l.162.046h0l.327.093h0C1020.629,165.909,1152.9,326.074,1162.1,518.515Zm.513,21.485c0,244.11-197.89,442-442,442H714.3l-.1,0h-.618l-.094,0-.085,0h-.176l-.095,0-.088,0h-.088l-.088,0h-.091l-.082,0-.1,0-.078,0-.1,0-.078,0-.1,0-.079,0-.1,0-.081,0-.1,0h-.078l-.1,0-.078,0-.1,0-.081,0-.1,0-.082,0-.1,0-.078,0-.1,0-.08,0-.1,0-.076,0-.1,0-.079,0-.1,0-.076,0-.1,0-.076,0-.1,0-.08,0-.1,0-.08,0-.1,0-.078,0-.1,0-.083,0-.093,0-.083,0-.094,0-.085,0-.093,0-.081,0-.1,0-.082,0-.095,0-.083,0-.1,0-.083,0-.094,0-.082,0-.1,0-.08,0-.1,0-.077,0-.1,0-.081,0-.1,0-.076,0-.1,0-.071,0-.107,0-.069,0-.109,0-.072,0-.1,0-.075,0-.1,0-.074,0-.1,0-.07,0-.1,0-.078,0-.1,0-.078,0-.1,0-.08,0-.1,0-.076,0-.1,0-.08,0-.1,0-.078,0-.1,0-.078,0-.1,0-.079,0-.1,0-.083,0-.094,0-.079,0-.1,0-.08,0-.1,0-.078,0-.1,0-.081,0-.094,0-.082,0-.095,0-.084,0-.093,0-.081,0-.1,0-.084,0-.091,0-.084,0-.093,0-.085,0-.09,0-.086,0-.09,0-.088,0-.09,0-.085,0-.091,0-.087,0-.091,0-.082,0-.095,0-.084,0-.094,0-.078,0-.1,0-.076,0-.1,0-.075,0-.1,0-.079,0-.1,0-.079,0-.1,0-.083,0-.095,0-.078,0-.1,0-.082,0-.094,0-.08,0-.1,0-.08,0-.1,0-.077,0-.1,0-.079,0-.1,0-.075,0-.1,0-.075,0-.1,0-.072,0-.1,0-.078,0-.1,0-.078,0-.1,0-.075,0-.1-.005-.07,0-.1-.005-.077,0-.1-.005-.076,0-.1,0-.079,0-.1,0-.076,0-.1-.005-.079,0-.1,0-.077,0-.1-.005-.078,0-.1-.005-.074,0-.1-.005-.075,0-.1-.005-.074,0-.1-.005-.078,0-.1-.005-.07,0-.1-.006-.076,0-.1-.005-.074,0-.1-.006-.073,0-.1-.006-.068,0-.106-.006-.073,0-.1-.006-.072,0-.1-.006-.075,0-.1-.006-.066,0-.108-.006-.072,0-.1-.006-.069,0-.107-.006-.071,0-.1-.006-.069,0-.1-.006-.074,0-.1-.006-.073,0-.1-.006-.071,0-.109-.007-.064,0-.111-.007-.067,0-.113-.007-.059,0-.115-.007-.064,0-.111-.007-.064,0-.108-.007-.072,0-.1-.006-.071,0-.107-.007-.069,0-.111-.007-.062,0-.108-.007-.074,0-.1-.006-.07,0-.109-.007-.068,0-.108-.007-.066,0-.107-.007-.071,0-.107-.007-.066,0-.112-.007-.065,0-.114-.007-.06,0-.108-.007-.071-.011-.107-.007-.064,0-.114-.008-.064,0-.114-.008-.059,0-.113-.008-.065,0-.112-.008-.061,0-.112-.008-.066,0-.12-.008-.051,0-.116-.008-.065,0-.115-.008-.057,0-.121-.008-.056,0-.122-.008-.051,0-.117-.009-.062,0-.118-.009-.054,0-.118-.009-.06,0-.118-.008-.055,0-.109-.008-.07-.005-.107-.008-.065,0-.11-.008-.067-.005-.113-.008-.059,0-.118-.009-.058,0-.128-.01-.044,0-.126-.01-.051,0-.133-.01-.041,0-.12-.009-.059,0-.116-.009-.058,0-.121-.01-.054,0-.13-.01-.044,0-.123-.01-.054,0-.144-.011-.028,0-.145-.011-.031,0-.314-.025-.037,0-.161-.013h-.011l-.162-.013h-.013l-1.023-.083-.029,0c-1.4-.115-2.8-.237-4.192-.366l-.022,0-.675-.063-.022,0-.676-.064-.02,0-.156-.015h-.005l-.169-.016h-.008l-.339-.033-.019,0-.158-.015h0l-.169-.016-.023,0-.153-.015h-.013l-.156-.015-.047,0-.127-.012-.045,0-.13-.013-.039,0-.136-.013-.036,0-.136-.014-.041,0-.134-.013-.04,0-.132-.013-.044,0-.131-.013-.044,0-.126-.013-.058-.006-.118-.012-.046,0-.127-.013-.05-.005-.124-.013-.051-.005-.12-.012-.057-.006-.122-.013-.039,0-.133-.014-.044,0-.131-.013-.044,0-.127-.013-.053-.005-.122-.013-.048-.005-.126-.013-.046-.005-.128-.013-.045-.005-.128-.013-.044,0-.131-.014-.038,0-.135-.015-.04,0-.135-.015-.037,0-.13-.014-.054-.006-.124-.013-.041,0-.131-.014-.046-.005-.127-.014-.047-.005-.126-.014-.048-.005-.127-.014-.044-.005-.13-.014-.04,0-.134-.015-.04,0-.13-.014-.05-.006-.123-.014-.051-.006-.122-.014-.05-.005-.126-.014-.045-.005-.126-.014-.05-.005-.124-.014-.048-.005-.125-.014-.048-.005-.128-.015-.048,0-.124-.014-.054-.006-.123-.014-.045-.005-.129-.015-.043,0-.131-.015-.043,0-.126-.015-.052-.006-.124-.014-.046-.006-.126-.015-.047-.005-.128-.015-.044-.005-.125-.015-.055-.006-.118-.014-.055-.007-.118-.014-.053-.006-.122-.014-.051-.006-.12-.014-.055-.007-.119-.014-.053-.006-.122-.015-.048-.006-.126-.015-.048-.006-.121-.015-.056-.007-.12-.014-.05-.006-.122-.015-.051-.006-.124-.015-.049-.006-.121-.015-.053-.007-.122-.015-.048-.006-.126-.016-.044-.005-.13-.016-.043-.005-.125-.016-.052-.006-.122-.015-.05-.006-.123-.016-.048-.006-.125-.016-.049-.006-.122-.015-.049-.006-.125-.016-.046-.006-.127-.016-.045-.006-.128-.016-.047-.006-.12-.015-.058-.007-.114-.015-.059-.007-.114-.015-.057-.007-.117-.015-.056-.008-.113-.014-.06-.008-.117-.015-.052-.007-.123-.016-.046-.006-.127-.016-.047-.006-.12-.016-.057-.008-.116-.015-.055-.007-.117-.016-.055-.007-.122-.016-.048-.006-.121-.016-.054-.007-.118-.016-.055-.007-.117-.016-.054-.007-.12-.016-.053-.007-.114-.015-.062-.008-.111-.015-.059-.008-.112-.015-.06-.008-.117-.016-.054-.007L660.9,978l-.057-.008-.119-.016-.052-.007-.122-.016-.048-.007-.126-.017-.048-.006-.118-.016-.056-.008-.119-.016-.051-.007-.121-.016-.05-.007-.124-.017-.047-.006-.122-.017-.051-.007-.123-.017-.049-.007-.125-.018-.044-.006-.133-.019-.038-.005-.126-.017-.05-.007-.126-.018-.044-.006-.129-.018-.042-.006-.132-.019-.039-.005-.13-.018-.043-.006-.133-.019-.037-.005-.135-.019-.036-.005-.135-.019-.039-.006-.127-.018-.047-.007-.126-.018-.045-.006-.131-.019-.037-.005-.138-.02-.034-.005-.133-.019-.041-.006-.132-.019-.039-.006-.138-.02-.031,0-.14-.02-.034-.005-.128-.019-.048-.007-.124-.018-.047-.007-.129-.019-.04-.006-.135-.02-.036-.005-.133-.02-.039-.006-.139-.021-.03,0-.147-.022-.022,0-.147-.022-.026,0-.133-.02-.042-.006-.13-.019-.041-.006-.135-.02-.034-.005-.142-.021-.029,0-.142-.021-.029,0-.147-.022-.023,0-.153-.023-.016,0-.151-.023-.023,0-.141-.021-.033-.005-.14-.022-.031,0-.147-.023-.021,0-.154-.023-.016,0-.15-.023-.023,0-.157-.024-.011,0-.161-.025h-.01l-.166-.026h0l-.159-.025-.014,0-.167-.026h0l-.509-.08h0q-7.19-1.134-14.3-2.5h0l-.672-.129h-.006l-.165-.032h0l-.168-.032h0l-.165-.032-.009,0-.158-.03-.015,0-.5-.1h0l-.165-.032-.01,0-.664-.131-.017,0-.153-.03-.013,0-.157-.031-.009,0-.161-.032-.008,0-.158-.031-.016,0-.154-.031-.01,0-.161-.032h0l-.165-.033h-.005l-.159-.032-.019,0-.152-.031-.01,0-.158-.032-.01,0-.159-.032-.007,0-.158-.032-.016,0-.157-.032h0l-.165-.034-.008,0-.158-.032-.016,0-.147-.03-.029-.006-.144-.029-.016,0-.153-.031-.016,0-.153-.031-.015,0-.153-.032-.016,0-.155-.032-.01,0-.157-.032-.014,0-.153-.032-.017,0-.149-.031-.024,0-.146-.03-.02,0-.15-.031-.018,0-.152-.031-.015,0-.154-.032-.013,0-.158-.033h-.005l-.162-.034-.009,0-.156-.033-.016,0-.149-.031-.024,0-.148-.031-.015,0-.153-.032-.016,0-.151-.032-.017,0-.15-.032-.019,0-.153-.033-.01,0-.159-.034-.01,0-.157-.034-.013,0-.151-.032-.021,0-.15-.032-.013,0-.154-.033-.016,0-.153-.033-.013,0-.156-.034-.011,0-.161-.035h0l-.163-.035-.008,0-.156-.034-.015,0-.147-.032-.027-.006-.143-.031-.021,0-.151-.033-.014,0-.154-.034-.014,0-.152-.033-.016,0-.156-.034-.007,0-.163-.036h0l-.161-.036-.01,0-.154-.034-.016,0-.158-.035h0l-.162-.036h-.007l-.16-.036-.009,0-.157-.035-.012,0-.161-.036h0l-.162-.036-.009,0-.158-.035-.009,0-.153-.034-.018,0-.155-.035-.007,0-.162-.036h0l-.165-.037h0l-.162-.036-.008,0-.328-.074h-.006l-.165-.037h0l-.163-.037h-.006l-.665-.152h0l-.5-.115h0l-.159-.037-.013,0-.161-.037h0l-.162-.038h-.007l-.328-.076h-.006l-.66-.154-.008,0A439.982,439.982,0,0,1,460.428,897.35h0q-10.332-7.535-20.2-15.645h0l-.255-.209,0,0-.125-.1,0,0-.123-.1-.008-.006-.12-.1-.01-.008-.116-.1-.019-.016-.11-.091-.014-.012-.115-.095-.011-.009-.116-.1-.012-.01-.114-.095-.017-.015-.111-.091-.017-.014-.112-.093-.013-.01-.116-.1-.01-.009-.116-.1-.016-.013-.113-.093-.012-.01-.114-.094-.017-.015-.111-.092-.015-.013-.11-.092-.022-.019-.1-.086-.024-.02-.1-.086-.023-.02-.1-.086-.023-.019-.1-.085-.029-.024-.1-.084-.022-.019-.105-.088-.022-.018-.107-.089-.017-.014-.11-.091-.02-.017-.108-.091-.016-.013-.112-.094-.013-.011-.114-.1-.012-.01-.114-.1-.017-.014-.112-.094-.013-.011-.112-.094-.017-.014-.11-.093-.015-.012-.109-.092-.024-.02-.1-.086-.025-.021-.1-.086-.025-.022-.1-.085-.026-.022-.1-.083-.032-.027-.1-.081-.028-.024-.1-.083-.029-.024-.1-.084-.024-.021-.1-.086-.025-.022-.1-.088-.02-.016-.106-.09-.022-.018-.107-.091-.016-.014-.108-.092-.022-.019-.106-.091-.017-.014-.108-.092-.02-.017L434,876.5l-.02-.017-.1-.089-.025-.021-.1-.085-.025-.022-.1-.085-.029-.024-.1-.084-.025-.022-.1-.086-.027-.023-.1-.083-.029-.025-.1-.083-.025-.028-.1-.086-.022-.018-.1-.089-.023-.02-.1-.088-.022-.019-.1-.089-.023-.019-.107-.092-.016-.014-.106-.091-.024-.02-.1-.088-.022-.019-.1-.087-.027-.023-.1-.085-.025-.022-.1-.085-.03-.025-.1-.084-.026-.023-.1-.085-.029-.025-.1-.083-.029-.025-.091-.079-.04-.034-.085-.074-.038-.033-.088-.076-.038-.033-.091-.079-.031-.027-.091-.079-.038-.033-.086-.075-.037-.032-.091-.079-.032-.028-.1-.084-.025-.022-.1-.084-.032-.028-.092-.08-.032-.028-.1-.083-.029-.025-.1-.085-.027-.023-.1-.084-.03-.026-.1-.085-.024-.021-.1-.088-.025-.022-.1-.087-.024-.022-.1-.083-.034-.029-.091-.08-.032-.028-.093-.082-.032-.028-.1-.085-.025-.022-.1-.084-.031-.028-.094-.083-.028-.025-.1-.086-.026-.023-.1-.091-.018-.016-.1-.09-.025-.022-.1-.088-.024-.021-.1-.087-.027-.024-.1-.088-.023-.02-.094-.083-.034-.03-.092-.081-.029-.026-.094-.083-.031-.028-.094-.083-.03-.026-.089-.079-.038-.034-.089-.079-.032-.029-.092-.082-.032-.029-.1-.085-.025-.023-.1-.085-.031-.027-.1-.089-.021-.018-.1-.09-.024-.021-.108-.1-.012-.011-.1-.09-.027-.024-.1-.088-.022-.02-.1-.087-.029-.026-.1-.09L426,869.5l-.1-.087-.028-.025-.1-.091-.019-.017-.1-.091-.024-.022-.107-.1-.014-.012-.1-.087-.031-.028-.1-.089-.021-.019-.1-.094-.018-.017-.226-.2-.021-.019-.1-.094-.017-.015-.114-.1-.008-.007-.237-.214-.01-.008-.233-.211-.013-.012-.113-.1-.009-.008-.1-.091-.025-.023-.1-.094-.018-.016-.095-.086-.03-.028-.1-.093-.018-.016-.093-.084-.032-.029-.107-.1-.012-.011-.108-.1-.015-.014-.229-.208-.017-.015-.113-.1-.008-.007-.109-.1-.014-.012-.236-.216-.008-.008-.24-.22,0,0-.24-.22-.005,0-.229-.211-.016-.014-.228-.209-.017-.015-.482-.444,0,0q-.731-.675-1.458-1.351l-.015-.014-.47-.438-.009-.008-.474-.443-.02-.018-.1-.1-.007-.007-.114-.107-.009-.008-.232-.217-.019-.018-.224-.21,0,0-.233-.22-.035-.033-.088-.083-.01-.009-.109-.1-.021-.02-.1-.1,0,0-.116-.11-.016-.015-.226-.213-.009-.009-.112-.106h0l-.115-.109-.036-.035-.086-.081-.027-.026-.092-.088-.029-.028-.092-.088-.028-.026-.088-.083-.05-.048-.072-.068-.043-.041-.076-.072-.043-.041-.079-.075-.046-.044-.069-.066-.061-.058-.062-.058-.054-.052-.064-.061-.052-.05-.071-.068-.046-.044-.07-.068-.054-.051-.068-.065-.047-.044-.073-.07-.042-.04-.079-.076-.043-.042-.072-.069-.055-.053-.066-.063-.05-.048-.069-.066-.05-.048-.07-.067-.054-.051-.062-.06-.058-.056-.064-.062-.052-.05-.066-.063-.053-.051-.068-.065-.055-.053-.06-.058-.063-.06-.059-.057-.054-.053-.065-.063-.049-.048-.071-.069-.05-.049-.065-.063-.054-.052-.069-.067-.043-.043-.075-.072-.043-.041-.078-.076-.045-.044-.068-.066-.059-.057-.061-.059-.055-.053-.064-.062-.051-.049-.07-.068-.05-.049-.065-.063-.057-.055-.062-.061-.056-.055-.061-.059-.055-.053-.067-.065-.053-.052-.061-.059-.062-.06-.059-.057-.056-.055-.062-.061-.052-.051-.07-.068-.048-.047-.066-.065-.055-.054-.066-.065-.048-.047-.07-.069-.045-.045-.075-.074-.044-.043-.07-.068-.053-.052-.066-.065-.05-.049-.067-.066-.051-.05-.068-.067-.053-.052-.061-.061-.058-.057-.062-.061-.053-.052-.065-.063-.052-.051-.068-.067-.052-.051-.062-.062-.056-.055-.065-.065-.048-.048-.069-.068-.048-.047-.073-.072-.044-.044-.071-.07-.048-.048-.071-.071-.044-.043-.074-.074-.041-.041-.045-.045,18.32-18.449A413.406,413.406,0,0,0,720.611,956c229.383,0,416-186.617,416-416Z" transform="translate(-276.888 -97.5)" fill="#fff" stroke="#fff" stroke-miterlimit="10" stroke-width="1"/>
      <path id="Path_2586" data-name="Path 2586" d="M399.545,798.823a.146.146,0,0,0,.049-.2l-.793-.979a1.788,1.788,0,0,0-2.478.07l-6.385,5.17a1.085,1.085,0,0,1-1.5.044l-17.287-21.348a1.087,1.087,0,0,1,.355-1.463l7.79-6.308a.147.147,0,0,0,.049-.2l-.793-.979a1.787,1.787,0,0,0-2.478.07l-19.3,15.63a.146.146,0,0,0-.048.2l.792.979a1.789,1.789,0,0,0,2.478-.071l6.385-5.17a1.087,1.087,0,0,1,1.505-.042l17.287,21.348a1.085,1.085,0,0,1-.357,1.461l-7.79,6.308a.149.149,0,0,0-.047.2l.792.977a1.787,1.787,0,0,0,2.478-.071Z" transform="translate(-276.888 -97.5)" fill="#fff" stroke="#fff" stroke-miterlimit="10" stroke-width="1"/>
      <path id="Path_2587" data-name="Path 2587" d="M399.545,798.823a.146.146,0,0,0,.049-.2l-.793-.979a1.788,1.788,0,0,0-2.478.07l-6.385,5.17a1.085,1.085,0,0,1-1.5.044l-17.287-21.348a1.087,1.087,0,0,1,.355-1.463l7.79-6.308a.147.147,0,0,0,.049-.2l-.793-.979a1.787,1.787,0,0,0-2.478.07l-19.3,15.63a.146.146,0,0,0-.048.2l.792.979a1.789,1.789,0,0,0,2.478-.071l6.385-5.17a1.087,1.087,0,0,1,1.505-.042l17.287,21.348a1.085,1.085,0,0,1-.357,1.461l-7.79,6.308a.149.149,0,0,0-.047.2l.792.977a1.787,1.787,0,0,0,2.478-.071Z" transform="translate(-276.888 -97.5)" fill="#fff" stroke="#fff" stroke-width="1"/>
      <path id="Path_2588" data-name="Path 2588" d="M337.013,732.627l.95-.5c3.378-1.8,7.241-1.159,8.612,1.421l6.105,11.482c1.372,2.58-.26,6.139-3.637,7.935l-.95.505c-3.378,1.8-7.24,1.159-8.612-1.422l-6.105-11.482C332,737.982,333.634,734.423,337.013,732.627Zm-.647,20.773c2.043,3.842,7.8,4.791,12.825,2.116l.939-.5c5.03-2.674,7.459-7.974,5.416-11.815l-5.856-11.015c-2.043-3.842-7.8-4.791-12.824-2.117l-.939.5c-5.029,2.674-7.459,7.974-5.416,11.815Z" transform="translate(-276.888 -97.5)" fill="#fff" stroke="#fff" stroke-miterlimit="10" stroke-width="1"/>
      <path id="Path_2589" data-name="Path 2589" d="M335.89,733.381l.886-.61c3.151-2.17,7.061-1.979,8.719.428l7.378,10.709c1.658,2.406.444,6.128-2.706,8.3l-.886.611c-3.151,2.17-7.061,1.978-8.719-.428l-7.378-10.709C331.525,739.273,332.739,735.552,335.89,733.381Zm1.732,20.711c2.468,3.583,8.292,3.868,12.983.637l.876-.6c4.691-3.232,6.5-8.774,4.03-12.357L348.433,731.5c-2.468-3.583-8.291-3.869-12.982-.637l-.876.6c-4.691,3.232-6.5,8.774-4.03,12.357Z" transform="translate(-276.888 -97.5)" fill="#fff" stroke="#fff" stroke-width="1"/>
      <path id="Path_2590" data-name="Path 2590" d="M287.712,537.4h1.076c3.826,0,6.937,2.376,6.937,5.3v13c0,2.922-3.112,5.3-6.937,5.3h-1.076c-3.826,0-6.937-2.376-6.937-5.3v-13C280.775,539.776,283.886,537.4,287.712,537.4Zm-10.323,18.038c0,4.351,4.634,7.89,10.33,7.89h1.063c5.7,0,10.33-3.538,10.329-7.89V542.964c0-4.351-4.633-7.89-10.33-7.89h-1.063c-5.7,0-10.33,3.539-10.33,7.89Z" transform="translate(-276.888 -97.5)" fill="#fff" stroke="#fff" stroke-miterlimit="10" stroke-width="1"/>
      <path id="Path_2591" data-name="Path 2591" d="M287.908,537.331l1.1,0c3.9.018,7.079,2.328,7.092,5.15l.061,12.56c.014,2.822-3.145,5.1-7.043,5.085l-1.1-.005c-3.9-.018-7.079-2.328-7.092-5.15l-.061-12.56C280.851,539.594,284.01,537.313,287.908,537.331ZM277.474,554.7c.02,4.2,4.757,7.641,10.561,7.668l1.083,0c5.8.026,10.507-3.369,10.487-7.572l-.058-12.048c-.02-4.2-4.757-7.642-10.561-7.668l-1.083-.005c-5.8-.027-10.507,3.37-10.487,7.572Z" transform="translate(-276.888 -97.5)" fill="#fff" stroke="#fff" stroke-width="1"/>
      <path id="Path_2592" data-name="Path 2592" d="M320.108,689.365a3.284,3.284,0,0,1,.046-2.534l3.922-9.583a2.481,2.481,0,0,0,.036-1.926l-.577-1.359a.412.412,0,0,0-.32-.236.718.718,0,0,0-.787.439l-3.542,8.652a.957.957,0,0,1-.742.538.649.649,0,0,1-.723-.32l-.586-1.38c-1.06-2.5-4.133-3.489-7.149-2.306a8.117,8.117,0,0,0-3.983,3.289,4.2,4.2,0,0,0-.467,3.8l9.122,21.489a.118.118,0,0,0,.159.039l1.534-.651a1.438,1.438,0,0,0,.987-1.735l-8.759-20.636c-.494-1.164.661-2.72,2.024-3.335a3.4,3.4,0,0,1,2.175-.248,1.977,1.977,0,0,1,1.426,1.115l8.788,20.7a1.438,1.438,0,0,0,1.933.5l9.634-4.09a.118.118,0,0,0,.082-.141l-.4-.934a1.441,1.441,0,0,0-1.934-.5l-6.088,2.584a.872.872,0,0,1-1.173-.3Z" transform="translate(-276.888 -97.5)" fill="#fff" stroke="#fff" stroke-miterlimit="10" stroke-width="1"/>
      <path id="Path_2593" data-name="Path 2593" d="M320.108,689.365a3.284,3.284,0,0,1,.046-2.534l3.922-9.583a2.481,2.481,0,0,0,.036-1.926l-.577-1.359a.412.412,0,0,0-.32-.236.718.718,0,0,0-.787.439l-3.542,8.652a.957.957,0,0,1-.742.538.649.649,0,0,1-.723-.32l-.586-1.38c-1.06-2.5-4.133-3.489-7.149-2.306a8.117,8.117,0,0,0-3.983,3.289,4.2,4.2,0,0,0-.467,3.8l9.122,21.489a.118.118,0,0,0,.159.039l1.534-.651a1.438,1.438,0,0,0,.987-1.735l-8.759-20.636c-.494-1.164.661-2.72,2.024-3.335a3.4,3.4,0,0,1,2.175-.248,1.977,1.977,0,0,1,1.426,1.115l8.788,20.7a1.438,1.438,0,0,0,1.933.5l9.634-4.09a.118.118,0,0,0,.082-.141l-.4-.934a1.441,1.441,0,0,0-1.934-.5l-6.088,2.584a.872.872,0,0,1-1.173-.3Z" transform="translate(-276.888 -97.5)" fill="#fff" stroke="#fff" stroke-width="1"/>
      <path id="Path_2594" data-name="Path 2594" d="M312.345,644.674c.07-.017.116-.075.1-.126l-.245-.985a1.439,1.439,0,0,0-1.832-.792l-19.4,4.837c-.07.018-.116.076-.1.127l.246.985a1.439,1.439,0,0,0,1.832.792Z" transform="translate(-276.888 -97.5)" fill="#fff" stroke="#fff" stroke-miterlimit="10" stroke-width="1"/>
      <path id="Path_2595" data-name="Path 2595" d="M312.345,644.674c.07-.017.116-.075.1-.126l-.245-.985a1.439,1.439,0,0,0-1.832-.792l-19.4,4.837c-.07.018-.116.076-.1.127l.246.985a1.439,1.439,0,0,0,1.832.792Z" transform="translate(-276.888 -97.5)" fill="#fff" stroke="#fff" stroke-width="1"/>
      <path id="Path_2596" data-name="Path 2596" d="M303.684,610.377l-5-21.67a.081.081,0,0,0-.074-.067l-1.229.284a1.088,1.088,0,0,0-.9,1.236l4.025,17.433L286.356,594.6c-1.019-.936-1.549-1.423-1.78-1.706l-.044.029c-.075-.068-.147-.142-.219-.213a1.282,1.282,0,0,0-.837-.508,3.075,3.075,0,0,0-.911.138l-.239.055a1.09,1.09,0,0,0-.9,1.235l5,21.67a.08.08,0,0,0,.073.068l1.23-.284a1.089,1.089,0,0,0,.9-1.235l-4.065-17.608,16.5,15.245a1.248,1.248,0,0,0,1.113.262l.605-.14a1.09,1.09,0,0,0,.9-1.235Z" transform="translate(-276.888 -97.5)" fill="#fff" stroke="#fff" stroke-miterlimit="10" stroke-width="1"/>
      <path id="Path_2597" data-name="Path 2597" d="M303.684,610.377l-5-21.67a.081.081,0,0,0-.074-.067l-1.229.284a1.088,1.088,0,0,0-.9,1.236l4.025,17.433L286.356,594.6c-1.019-.936-1.549-1.423-1.78-1.706l-.044.029c-.075-.068-.147-.142-.219-.213a1.282,1.282,0,0,0-.837-.508,3.075,3.075,0,0,0-.911.138l-.239.055a1.09,1.09,0,0,0-.9,1.235l5,21.67a.08.08,0,0,0,.073.068l1.23-.284a1.089,1.089,0,0,0,.9-1.235l-4.065-17.608,16.5,15.245a1.248,1.248,0,0,0,1.113.262l.605-.14a1.09,1.09,0,0,0,.9-1.235Z" transform="translate(-276.888 -97.5)" fill="#fff" stroke="#fff" stroke-width="1"/>
      <path id="Path_2598" data-name="Path 2598" d="M279.594,480.9l-.035,1.014a1.438,1.438,0,0,0,1.543,1.264l15.98.558a1.034,1.034,0,0,1,.833.416.593.593,0,0,1-.069.75l-18.539,20.018a2.145,2.145,0,0,0-.6,1.388l-.052,1.5a1.441,1.441,0,0,0,1.543,1.268l19.984.7a.118.118,0,0,0,.132-.1l.035-1.013a1.44,1.44,0,0,0-1.543-1.267l-15.967-.557a1.031,1.031,0,0,1-.831-.415.588.588,0,0,1-.1-.349.611.611,0,0,1,.175-.4l18.526-20.007a2.127,2.127,0,0,0,.591-1.321l.057-1.582c.023-.665-.669-1.233-1.543-1.263l-19.982-.7C279.656,480.8,279.6,480.842,279.594,480.9Z" transform="translate(-276.888 -97.5)" fill="#fff" stroke="#fff" stroke-miterlimit="10" stroke-width="1"/>
      <path id="Path_2599" data-name="Path 2599" d="M279.594,480.9l-.035,1.014a1.438,1.438,0,0,0,1.543,1.264l15.98.558a1.034,1.034,0,0,1,.833.416.593.593,0,0,1-.069.75l-18.539,20.018a2.145,2.145,0,0,0-.6,1.388l-.052,1.5a1.441,1.441,0,0,0,1.543,1.268l19.984.7a.118.118,0,0,0,.132-.1l.035-1.013a1.44,1.44,0,0,0-1.543-1.267l-15.967-.557a1.031,1.031,0,0,1-.831-.415.588.588,0,0,1-.1-.349.611.611,0,0,1,.175-.4l18.526-20.007a2.127,2.127,0,0,0,.591-1.321l.057-1.582c.023-.665-.669-1.233-1.543-1.263l-19.982-.7C279.656,480.8,279.6,480.842,279.594,480.9Z" transform="translate(-276.888 -97.5)" fill="#fff" stroke="#fff" stroke-width="1"/>
      <path id="Path_2600" data-name="Path 2600" d="M367.776,294.73l-.929-.538c-3.3-1.914-4.8-5.522-3.341-8.046l6.5-11.231c1.461-2.524,5.337-3.02,8.641-1.106l.929.538c3.3,1.914,4.8,5.522,3.341,8.046l-6.5,11.231C374.955,296.147,371.08,296.643,367.776,294.73Zm17.938-10.415c2.176-3.757-.055-9.131-4.975-11.98l-.918-.532c-4.919-2.849-10.691-2.111-12.867,1.647l-6.24,10.773c-2.176,3.757.055,9.131,4.974,11.98l.919.532c4.919,2.849,10.691,2.111,12.867-1.647Z" transform="translate(-276.888 -97.5)" fill="#fff" stroke="#fff" stroke-miterlimit="10" stroke-width="1"/>
      <path id="Path_2601" data-name="Path 2601" d="M366.756,294.133l-.871-.629c-3.1-2.235-4.225-5.975-2.518-8.34l7.6-10.523c1.707-2.365,5.612-2.47,8.708-.236l.87.629c3.1,2.235,4.226,5.975,2.519,8.34l-7.6,10.523C373.758,296.262,369.852,296.368,366.756,294.133Zm18.89-8.567c2.541-3.521.859-9.091-3.751-12.418l-.86-.621c-4.61-3.327-10.426-3.17-12.967.351l-7.287,10.095c-2.541,3.521-.859,9.091,3.75,12.418l.861.621c4.609,3.327,10.426,3.17,12.967-.351Z" transform="translate(-276.888 -97.5)" fill="#fff" stroke="#fff" stroke-width="1"/>
      <path id="Path_2602" data-name="Path 2602" d="M356.285,331.64l.661-1.148a1.584,1.584,0,0,0-.581-2.162l-13.655-7.86a.963.963,0,0,1-.354-1.314l7.181-12.476a1.587,1.587,0,0,0-.583-2.164l-1.444-.831a.13.13,0,0,0-.177.05L329.77,334.247a1.584,1.584,0,0,0,.583,2.162l1.444.831a.129.129,0,0,0,.176-.047l7.908-13.737a.962.962,0,0,1,1.313-.352l14.915,8.585a.13.13,0,0,0,.177-.049Z" transform="translate(-276.888 -97.5)" fill="#fff" stroke="#fff" stroke-miterlimit="10" stroke-width="1"/>
      <path id="Path_2603" data-name="Path 2603" d="M356.459,331.445l.642-1.159a1.585,1.585,0,0,0-.616-2.152L342.7,320.5a.963.963,0,0,1-.375-1.308l6.977-12.59a1.587,1.587,0,0,0-.618-2.154l-1.457-.808a.13.13,0,0,0-.176.052L329.99,334.483a1.584,1.584,0,0,0,.618,2.152l1.458.808a.129.129,0,0,0,.175-.05l7.683-13.864a.963.963,0,0,1,1.307-.373l15.052,8.341a.131.131,0,0,0,.176-.052Z" transform="translate(-276.888 -97.5)" fill="#fff" stroke="#fff" stroke-width="1"/>
      <path id="Path_2604" data-name="Path 2604" d="M321.5,353.1a.12.12,0,0,0-.162.043l-.469,1.005a1.474,1.474,0,0,0,.876,1.87l8.875,4.138c3.46,1.613,5.177,5.281,3.828,8.172l-6,12.876c-1.348,2.892-5.261,3.933-8.721,2.32l-10.194-4.754a.12.12,0,0,0-.163.045l-.468,1a1.475,1.475,0,0,0,.876,1.87l8.869,4.136c5.152,2.4,10.978.851,12.987-3.456l5.759-12.35c2.008-4.307-.548-9.767-5.7-12.169Z" transform="translate(-276.888 -97.5)" fill="#fff" stroke="#fff" stroke-miterlimit="10" stroke-width="1"/>
      <path id="Path_2605" data-name="Path 2605" d="M322.448,353.014a.12.12,0,0,0-.164.034l-.524.978a1.474,1.474,0,0,0,.77,1.916l8.63,4.627c3.365,1.8,4.874,5.561,3.366,8.373l-6.714,12.522c-1.507,2.812-5.472,3.634-8.837,1.83l-9.913-5.315a.12.12,0,0,0-.165.035l-.523.977a1.475,1.475,0,0,0,.771,1.916l8.624,4.624c5.01,2.686,10.913,1.462,13.159-2.726l6.439-12.01c2.246-4.189,0-9.782-5.012-12.468Z" transform="translate(-276.888 -97.5)" fill="#fff" stroke="#fff" stroke-width="1"/>
      <path id="Path_2606" data-name="Path 2606" d="M311.268,434.262a2.313,2.313,0,0,0-.261-2.054l-12.074-17.931a1.074,1.074,0,0,1-.108-.854.953.953,0,0,1,.62-.594l20.67-6.323a2.314,2.314,0,0,0,1.5-1.433l.929-2.622-24.007,7.43a4.352,4.352,0,0,0-2.167,6.113l14.062,20.881Z" transform="translate(-276.888 -97.5)" fill="#fff" stroke="#fff" stroke-miterlimit="10" stroke-width="1"/>
      <path id="Path_2607" data-name="Path 2607" d="M311.179,434.268a2.313,2.313,0,0,0-.248-2.056L298.972,414.2a1.074,1.074,0,0,1-.1-.855.953.953,0,0,1,.624-.59l20.71-6.191a2.314,2.314,0,0,0,1.507-1.424l.946-2.616L298.6,409.806a4.352,4.352,0,0,0-2.206,6.1l13.929,20.97Z" transform="translate(-276.888 -97.5)" fill="#fff" stroke="#fff" stroke-width="1"/>
    </g>
  </g>
</svg>
