<?xml version="1.0" encoding="UTF-8"?>
<svg id="Layer_1" data-name="Layer 1" xmlns="http://www.w3.org/2000/svg" viewBox="0 0 450.23 450.24">
  <defs>
    <style>
      .cls-1 {
        stroke: #000;
        stroke-miterlimit: 10;
        stroke-width: 5px;
      }
    </style>
  </defs>
  <path class="cls-1" d="M224.96,447.72c-59.32,0-118.65,.04-177.97-.02-20.8-.02-36.58-10.75-42.29-29.27-1.64-5.3-2.08-11.14-2.09-16.73-.11-99.15-.06-198.3-.06-297.45,0-19-.08-37.99-.02-56.99C2.61,20.11,20.11,2.57,47.25,2.53c44.49-.06,88.98-.03,133.48,0,9.2,0,15.11,4.19,16.38,11.43,1.54,8.75-4.56,16.27-13.63,16.5-7.16,.19-14.32,.05-21.49,.05-37.99,0-75.99,0-113.98,0-12.73,0-17.5,4.78-17.5,17.52,0,117.98,0,235.96,0,353.94,0,13.08,4.68,17.75,17.77,17.75,117.81,0,235.63,0,353.44,0,13.41,0,18-4.59,18-18.02,0-43.83,0-87.65,.03-131.48,0-2.48-.02-5.06,.6-7.44,1.53-5.93,7.28-9.97,13.46-9.89,6.46,.09,12.01,4.42,13.35,10.68,.48,2.25,.54,4.63,.54,6.95,.03,43.99,.05,87.99,0,131.98-.03,27.8-17.45,45.18-45.28,45.2-59.16,.03-118.31,0-177.47,0Z"/>
  <path class="cls-1" d="M398.63,30.51c-1.92,0-3.84,0-5.77,0-41.32,0-82.65,0-123.97-.04-9.45,0-15.42-4.87-15.93-12.89-.47-7.35,4.18-13.41,11.43-14.68,2.12-.37,4.31-.38,6.47-.38,52.99-.02,105.98-.02,158.97-.01,12.99,0,17.88,4.85,17.89,17.78,.01,53.16,.01,106.31-.02,159.47,0,2.32-.06,4.7-.56,6.95-1.46,6.65-7.48,10.97-14.39,10.58-6.78-.39-12.27-5.56-12.88-12.34-.24-2.65-.15-5.33-.15-7.99,0-39.83,0-79.65,0-119.48,0-1.94,0-3.88,0-5.82-.46-.24-.92-.47-1.39-.71-7.14,7.34-14.19,14.77-21.43,22.02-69.82,69.85-139.67,139.66-209.52,209.48-6.6,6.6-14.9,7.03-20.74,1.24-5.86-5.81-5.49-14.18,1.07-20.75,75.11-75.16,150.23-150.3,225.39-225.41,1.97-1.97,4.31-3.57,6.47-5.34-.31-.56-.62-1.11-.93-1.67Z"/>
</svg>