<svg width="16" height="16" viewBox="0 0 16 16" fill="none" xmlns="http://www.w3.org/2000/svg">
<path d="M14.6791 7.99793C14.6794 7.58191 14.8057 7.17575 15.0415 6.83298C15.2774 6.49021 15.6115 6.22692 16 6.07783C15.7989 5.2377 15.4657 4.43482 15.0127 3.69919C14.7489 3.81565 14.4638 3.87617 14.1754 3.87692C13.8326 3.87742 13.4951 3.79214 13.1937 3.62886C12.8922 3.46557 12.6365 3.22948 12.4497 2.94209C12.2629 2.65469 12.151 2.32514 12.1242 1.98345C12.0974 1.64176 12.1566 1.2988 12.2963 0.985819C11.5617 0.533356 10.7598 0.200592 9.92059 0C9.77174 0.38866 9.50842 0.723017 9.16545 0.958887C8.82248 1.19476 8.41599 1.32103 7.9997 1.32103C7.58342 1.32103 7.17693 1.19476 6.83396 0.958887C6.49099 0.723017 6.22767 0.38866 6.07882 0C5.23847 0.201007 4.43538 0.534157 3.69956 0.987003C3.83928 1.29998 3.89844 1.64294 3.87165 1.98463C3.84486 2.32632 3.73297 2.65588 3.54617 2.94327C3.35938 3.23067 3.10362 3.46676 2.80219 3.63004C2.50077 3.79332 2.16327 3.8786 1.82044 3.87811C1.53183 3.87939 1.2463 3.81879 0.983111 3.70037C0.533978 4.43853 0.202317 5.24199 0 6.08198C0.388431 6.23086 0.722615 6.49392 0.958496 6.83649C1.19438 7.17906 1.32088 7.58506 1.32133 8.00095C1.32178 8.41684 1.19615 8.8231 0.961012 9.16618C0.725872 9.50926 0.392257 9.77304 0.00414813 9.92276C0.205207 10.7629 0.538444 11.5658 0.991407 12.3014C1.37096 12.1329 1.79266 12.0833 2.20095 12.1592C2.60925 12.2351 2.98497 12.4328 3.27862 12.7264C3.57228 13.0199 3.77007 13.3956 3.84595 13.8038C3.92184 14.212 3.87224 14.6335 3.7037 15.013C4.43989 15.4651 5.24286 15.7982 6.08296 16C6.23186 15.6125 6.49474 15.2793 6.83693 15.0443C7.17911 14.8092 7.58453 14.6834 7.9997 14.6834C8.41488 14.6834 8.8203 14.8092 9.16248 15.0443C9.50467 15.2793 9.76755 15.6125 9.91644 16C10.7568 15.799 11.5599 15.4658 12.2957 15.013C12.1285 14.6336 12.0799 14.2125 12.1563 13.805C12.2327 13.3974 12.4305 13.0225 12.7238 12.7293C13.017 12.4362 13.392 12.2384 13.7997 12.1621C14.2073 12.0857 14.6285 12.1343 15.008 12.3014C15.4603 11.5654 15.7934 10.7626 15.9953 9.92276C15.6077 9.77144 15.2748 9.50682 15.04 9.16344C14.8052 8.82005 14.6794 8.41387 14.6791 7.99793ZM8.03733 11.3262C7.37806 11.3262 6.7336 11.1308 6.18543 10.7646C5.63727 10.3985 5.21003 9.87799 4.95774 9.26906C4.70544 8.66013 4.63943 7.99008 4.76805 7.34365C4.89667 6.69721 5.21414 6.10342 5.68031 5.63737C6.14649 5.17131 6.74043 4.85393 7.38703 4.72534C8.03364 4.59676 8.70386 4.66275 9.31295 4.91498C9.92203 5.16721 10.4426 5.59434 10.8089 6.14236C11.1752 6.69038 11.3707 7.33468 11.3707 7.99378C11.3708 8.43145 11.2847 8.86486 11.1172 9.26924C10.9498 9.67363 10.7043 10.0411 10.3947 10.3505C10.0851 10.66 9.71762 10.9055 9.31313 11.0729C8.90864 11.2403 8.47512 11.3264 8.03733 11.3262Z" fill="black"/>
</svg>
